<mxfile host="app.diagrams.net" modified="2024-04-20T15:12:38.480Z" agent="Mozilla/5.0 (Windows NT 10.0; Win64; x64) AppleWebKit/537.36 (KHTML, like Gecko) Chrome/123.0.0.0 Safari/537.36" etag="M4rvh5rvg44DjJEpW8Vt" version="24.2.7" type="google" pages="2">
  <diagram name="Hub and Spoke" id="ErA2VX6huhwrUJsOelp5">
    <mxGraphModel grid="0" page="1" gridSize="10" guides="1" tooltips="1" connect="0" arrows="0" fold="1" pageScale="1" pageWidth="1600" pageHeight="900" math="0" shadow="0">
      <root>
        <mxCell id="bJ2ua2rP26rWkI42sY4k-0" />
        <mxCell id="bJ2ua2rP26rWkI42sY4k-1" style="" parent="bJ2ua2rP26rWkI42sY4k-0" />
        <mxCell id="0yRXkISWtA-7Xl8DejMg-0" value="&lt;b style=&quot;font-size: 15px;&quot;&gt;Hub1&lt;/b&gt;&lt;br style=&quot;font-size: 15px;&quot;&gt;&lt;div style=&quot;font-size: 15px;&quot;&gt;10.11.0.0./20&lt;/div&gt;&lt;div style=&quot;font-size: 15px;&quot;&gt;10.11.16.0/20&lt;/div&gt;&lt;div style=&quot;font-size: 15px;&quot;&gt;fd00:db8:11::/56&lt;/div&gt;&lt;div style=&quot;font-size: 15px;&quot;&gt;fd00:db8:11:aa00::/56&lt;/div&gt;" style="rounded=0;whiteSpace=wrap;html=1;dashed=1;align=left;verticalAlign=top;spacingTop=1;spacing=1;spacingLeft=4;spacingBottom=1;spacingRight=1;fillColor=#f5f5f5;fontColor=#333333;strokeColor=#000000;fontSize=15;" vertex="1" parent="bJ2ua2rP26rWkI42sY4k-1">
          <mxGeometry x="749" y="340" width="711" height="249" as="geometry" />
        </mxCell>
        <mxCell id="0yRXkISWtA-7Xl8DejMg-1" value="&lt;b style=&quot;font-size: 15px;&quot;&gt;Spoke3&lt;/b&gt;&lt;div style=&quot;font-size: 15px;&quot;&gt;10.3.0.0./20&lt;/div&gt;&lt;div style=&quot;font-size: 15px;&quot;&gt;fd00:db8:3::/56&lt;/div&gt;" style="rounded=0;whiteSpace=wrap;html=1;dashed=1;align=left;verticalAlign=top;spacingTop=1;spacing=1;spacingLeft=4;spacingBottom=1;spacingRight=1;fillColor=#f5f5f5;fontColor=#333333;strokeColor=#000000;fontSize=15;" vertex="1" parent="bJ2ua2rP26rWkI42sY4k-1">
          <mxGeometry x="1147.4848260869567" y="47.99317871759891" width="270.6230869565217" height="168.99863574351977" as="geometry" />
        </mxCell>
        <mxCell id="0yRXkISWtA-7Xl8DejMg-2" value="&lt;b style=&quot;font-size: 15px;&quot;&gt;Spoke1&lt;/b&gt;&lt;div style=&quot;font-size: 15px;&quot;&gt;10.1.0.0./20&lt;/div&gt;&lt;div style=&quot;font-size: 15px;&quot;&gt;fd00:db8:1::/56&lt;/div&gt;" style="rounded=0;whiteSpace=wrap;html=1;dashed=1;align=left;verticalAlign=top;spacingTop=1;spacing=1;spacingLeft=4;spacingBottom=1;spacingRight=1;fillColor=#f5f5f5;strokeColor=#000000;fontColor=#333333;fontSize=15;" vertex="1" parent="bJ2ua2rP26rWkI42sY4k-1">
          <mxGeometry x="717" y="47.99317871759891" width="143.8755652173913" height="168.99863574351977" as="geometry" />
        </mxCell>
        <mxCell id="0yRXkISWtA-7Xl8DejMg-3" value="" style="image;aspect=fixed;html=1;points=[];align=center;fontSize=15;image=img/lib/azure2/compute/Virtual_Machine.svg;" vertex="1" parent="bJ2ua2rP26rWkI42sY4k-1">
          <mxGeometry x="771.7069933505837" y="119.93178717598909" width="34.46157851622394" height="31.972306111804848" as="geometry" />
        </mxCell>
        <mxCell id="0yRXkISWtA-7Xl8DejMg-4" value="&lt;div style=&quot;font-size: 15px;&quot;&gt;&lt;div style=&quot;font-size: 15px;&quot;&gt;10.1.0.5&lt;/div&gt;&lt;div style=&quot;font-size: 15px;&quot;&gt;fd00:db8:1::/64&lt;/div&gt;&lt;/div&gt;" style="rounded=0;whiteSpace=wrap;html=1;align=center;fontSize=15;strokeColor=#666666;" vertex="1" parent="bJ2ua2rP26rWkI42sY4k-1">
          <mxGeometry x="731.0027826086957" y="156.47" width="115.87" height="39.97" as="geometry" />
        </mxCell>
        <mxCell id="0yRXkISWtA-7Xl8DejMg-5" value="" style="image;aspect=fixed;html=1;points=[];align=center;fontSize=15;image=img/lib/azure2/networking/Virtual_Networks.svg;" vertex="1" parent="bJ2ua2rP26rWkI42sY4k-1">
          <mxGeometry x="776.7682608695652" y="40" width="30.830438036383246" height="18.406913375796222" as="geometry" />
        </mxCell>
        <mxCell id="0yRXkISWtA-7Xl8DejMg-6" value="" style="image;aspect=fixed;html=1;points=[];align=center;fontSize=15;image=img/lib/azure2/compute/Virtual_Machine.svg;" vertex="1" parent="bJ2ua2rP26rWkI42sY4k-1">
          <mxGeometry x="1205.046470869565" y="119.93178717598909" width="34.46157851622394" height="31.972306111804848" as="geometry" />
        </mxCell>
        <mxCell id="0yRXkISWtA-7Xl8DejMg-7" value="&lt;div style=&quot;font-size: 15px;&quot;&gt;&lt;div style=&quot;font-size: 15px;&quot;&gt;10.3.0.5&lt;/div&gt;&lt;div style=&quot;font-size: 15px;&quot;&gt;fd00:db8:3::/64&lt;/div&gt;&lt;/div&gt;" style="rounded=0;whiteSpace=wrap;html=1;align=center;fontSize=15;verticalAlign=middle;fontFamily=Helvetica;" vertex="1" parent="bJ2ua2rP26rWkI42sY4k-1">
          <mxGeometry x="1164.61" y="156.46999999999997" width="117.39" height="39.97" as="geometry" />
        </mxCell>
        <mxCell id="0yRXkISWtA-7Xl8DejMg-8" value="" style="image;aspect=fixed;html=1;points=[];align=center;fontSize=15;image=img/lib/azure2/networking/Virtual_Networks.svg;" vertex="1" parent="bJ2ua2rP26rWkI42sY4k-1">
          <mxGeometry x="1209.5229999999997" y="40" width="30.830438036383246" height="18.406913375796222" as="geometry" />
        </mxCell>
        <mxCell id="0yRXkISWtA-7Xl8DejMg-13" value="" style="image;aspect=fixed;html=1;points=[];align=center;fontSize=15;image=img/lib/azure2/compute/Virtual_Machine.svg;" vertex="1" parent="bJ2ua2rP26rWkI42sY4k-1">
          <mxGeometry x="1091.891304347826" y="392.839931787176" width="34.46157851622394" height="31.972306111804848" as="geometry" />
        </mxCell>
        <mxCell id="0yRXkISWtA-7Xl8DejMg-14" value="&lt;div style=&quot;font-size: 15px;&quot;&gt;&lt;div style=&quot;font-size: 15px;&quot;&gt;TrustSubnet&lt;/div&gt;&lt;div style=&quot;font-size: 15px;&quot;&gt;10.11.2.0/24&lt;/div&gt;&lt;div style=&quot;font-size: 15px;&quot;&gt;fd00:db8:11:2::/64&lt;/div&gt;&lt;/div&gt;" style="rounded=0;whiteSpace=wrap;html=1;align=center;fontSize=15;strokeColor=#666666;" vertex="1" parent="bJ2ua2rP26rWkI42sY4k-1">
          <mxGeometry x="942.6800000000001" y="378.00000000000006" width="138.93" height="61.66" as="geometry" />
        </mxCell>
        <mxCell id="0yRXkISWtA-7Xl8DejMg-15" value="" style="image;aspect=fixed;html=1;points=[];align=center;fontSize=15;image=img/lib/azure2/networking/Private_Endpoint.svg;" vertex="1" parent="bJ2ua2rP26rWkI42sY4k-1">
          <mxGeometry x="1348.9991046174669" y="495.9976671214187" width="39.862614512968115" height="36.53977841349126" as="geometry" />
        </mxCell>
        <mxCell id="0yRXkISWtA-7Xl8DejMg-17" value="&lt;div style=&quot;&quot;&gt;&lt;div style=&quot;font-size: 15px;&quot;&gt;Private Endpoint&lt;/div&gt;&lt;div style=&quot;font-size: 15px;&quot;&gt;10.11.7.0/24&lt;/div&gt;&lt;/div&gt;" style="rounded=0;whiteSpace=wrap;html=1;align=center;fillColor=none;strokeColor=none;fontSize=15;" vertex="1" parent="bJ2ua2rP26rWkI42sY4k-1">
          <mxGeometry x="1307.270411873951" y="536.12" width="123.32" height="42.1" as="geometry" />
        </mxCell>
        <mxCell id="0yRXkISWtA-7Xl8DejMg-20" value="" style="image;aspect=fixed;html=1;points=[];align=center;fontSize=15;image=img/lib/azure2/storage/Storage_Accounts.svg;" vertex="1" parent="bJ2ua2rP26rWkI42sY4k-1">
          <mxGeometry x="1491.9482608695653" y="478.0007230559344" width="38.53804754547906" height="30.830438036383246" as="geometry" />
        </mxCell>
        <mxCell id="0yRXkISWtA-7Xl8DejMg-31" value="&lt;div style=&quot;font-size: 15px;&quot;&gt;&lt;b style=&quot;font-size: 15px;&quot;&gt;Branch1&lt;/b&gt;&lt;/div&gt;&lt;div style=&quot;font-size: 15px;&quot;&gt;10.10.0.0/20&lt;/div&gt;&lt;div style=&quot;font-size: 15px;&quot;&gt;10.10.16.0/20&lt;/div&gt;&lt;div style=&quot;font-size: 15px;&quot;&gt;fd00:db8:10::/56&lt;/div&gt;&lt;div style=&quot;font-size: 15px;&quot;&gt;fd00:db8:10:aa00::/56&lt;br style=&quot;font-size: 15px;&quot;&gt;&lt;/div&gt;" style="rounded=0;whiteSpace=wrap;html=1;dashed=1;align=left;verticalAlign=top;spacingTop=1;spacing=1;spacingLeft=4;spacingBottom=1;spacingRight=1;fillColor=#f5f5f5;strokeColor=#000000;fontColor=#333333;fontSize=15;" vertex="1" parent="bJ2ua2rP26rWkI42sY4k-1">
          <mxGeometry x="698.25" y="693" width="266.06" height="173" as="geometry" />
        </mxCell>
        <mxCell id="0yRXkISWtA-7Xl8DejMg-32" value="" style="image;aspect=fixed;html=1;points=[];align=center;fontSize=15;image=img/lib/azure2/compute/Virtual_Machine.svg;" vertex="1" parent="bJ2ua2rP26rWkI42sY4k-1">
          <mxGeometry x="855.8271739130435" y="810.3349249658935" width="34.46157851622394" height="31.972306111804848" as="geometry" />
        </mxCell>
        <mxCell id="0yRXkISWtA-7Xl8DejMg-33" value="&lt;div style=&quot;font-size: 15px;&quot;&gt;&lt;div style=&quot;font-size: 15px;&quot;&gt;10.10.0.0/24&lt;/div&gt;&lt;div style=&quot;font-size: 15px;&quot;&gt;fd00:db8:10::/64&lt;/div&gt;&lt;/div&gt;" style="rounded=0;whiteSpace=wrap;html=1;align=center;fontSize=15;strokeColor=#666666;" vertex="1" parent="bJ2ua2rP26rWkI42sY4k-1">
          <mxGeometry x="714" y="806.34" width="125.84" height="44.66" as="geometry" />
        </mxCell>
        <mxCell id="0yRXkISWtA-7Xl8DejMg-35" value="" style="image;aspect=fixed;html=1;points=[];align=center;fontSize=15;image=img/lib/azure2/networking/Virtual_Router.svg;" vertex="1" parent="bJ2ua2rP26rWkI42sY4k-1">
          <mxGeometry x="850.4718056521738" y="718.1742428376533" width="33.11417418722645" height="33.11417418722645" as="geometry" />
        </mxCell>
        <mxCell id="0yRXkISWtA-7Xl8DejMg-38" value="&lt;b style=&quot;font-size: 15px;&quot;&gt;Spoke2&lt;/b&gt;&lt;div style=&quot;font-size: 15px;&quot;&gt;&lt;span style=&quot;background-color: initial; font-size: 15px;&quot;&gt;10.2.0.0./20&lt;/span&gt;&lt;div style=&quot;font-size: 15px;&quot;&gt;fd00:db8:2::/56&lt;/div&gt;&lt;/div&gt;" style="rounded=0;whiteSpace=wrap;html=1;dashed=1;align=left;verticalAlign=top;spacingTop=1;spacing=1;spacingLeft=4;spacingBottom=1;spacingRight=1;fillColor=#f5f5f5;strokeColor=#000000;fontColor=#333333;fontSize=15;" vertex="1" parent="bJ2ua2rP26rWkI42sY4k-1">
          <mxGeometry x="938.522695652174" y="47.99317871759891" width="143.8755652173913" height="168.99863574351977" as="geometry" />
        </mxCell>
        <mxCell id="0yRXkISWtA-7Xl8DejMg-39" value="" style="image;aspect=fixed;html=1;points=[];align=center;fontSize=15;image=img/lib/azure2/compute/Virtual_Machine.svg;" vertex="1" parent="bJ2ua2rP26rWkI42sY4k-1">
          <mxGeometry x="993.2296890027577" y="119.93178717598909" width="34.46157851622394" height="31.972306111804848" as="geometry" />
        </mxCell>
        <mxCell id="0yRXkISWtA-7Xl8DejMg-40" value="&lt;div style=&quot;font-size: 15px;&quot;&gt;&lt;div style=&quot;font-size: 15px;&quot;&gt;10.2.0.5&lt;/div&gt;&lt;div style=&quot;font-size: 15px;&quot;&gt;fd00:db8:2::/64&lt;/div&gt;&lt;/div&gt;" style="rounded=0;whiteSpace=wrap;html=1;align=center;fontSize=15;strokeColor=#666666;" vertex="1" parent="bJ2ua2rP26rWkI42sY4k-1">
          <mxGeometry x="952.2854782608697" y="156.47" width="116.35" height="39.97" as="geometry" />
        </mxCell>
        <mxCell id="0yRXkISWtA-7Xl8DejMg-41" value="" style="image;aspect=fixed;html=1;points=[];align=center;fontSize=15;image=img/lib/azure2/networking/Virtual_Networks.svg;" vertex="1" parent="bJ2ua2rP26rWkI42sY4k-1">
          <mxGeometry x="998.2909565217392" y="40" width="30.830438036383246" height="18.406913375796222" as="geometry" />
        </mxCell>
        <mxCell id="0yRXkISWtA-7Xl8DejMg-42" value="" style="endArrow=classic;startArrow=classic;html=1;rounded=0;entryX=0.5;entryY=1;entryDx=0;entryDy=0;fontSize=15;exitX=0.375;exitY=-0.008;exitDx=0;exitDy=0;exitPerimeter=0;" edge="1" parent="bJ2ua2rP26rWkI42sY4k-1" source="0yRXkISWtA-7Xl8DejMg-0" target="0yRXkISWtA-7Xl8DejMg-38">
          <mxGeometry width="50" height="50" relative="1" as="geometry">
            <mxPoint x="1010" y="318" as="sourcePoint" />
            <mxPoint x="1234.2669130434783" y="280.3492496589359" as="targetPoint" />
          </mxGeometry>
        </mxCell>
        <mxCell id="0yRXkISWtA-7Xl8DejMg-43" value="Vnet Peering" style="edgeLabel;html=1;align=center;verticalAlign=middle;resizable=0;points=[];fontSize=15;" connectable="0" vertex="1" parent="0yRXkISWtA-7Xl8DejMg-42">
          <mxGeometry x="0.0178" relative="1" as="geometry">
            <mxPoint as="offset" />
          </mxGeometry>
        </mxCell>
        <mxCell id="0yRXkISWtA-7Xl8DejMg-44" value="&lt;div style=&quot;font-size: 15px;&quot;&gt;&lt;div style=&quot;font-size: 15px;&quot;&gt;Storage&amp;nbsp;&lt;/div&gt;&lt;div style=&quot;font-size: 15px;&quot;&gt;Account&lt;/div&gt;&lt;/div&gt;" style="rounded=0;whiteSpace=wrap;html=1;align=center;fillColor=none;strokeColor=none;fontSize=15;" vertex="1" parent="bJ2ua2rP26rWkI42sY4k-1">
          <mxGeometry x="1465.542502033609" y="516.1154160982264" width="91.34956521739129" height="39.39495225102319" as="geometry" />
        </mxCell>
        <mxCell id="IYN8j_Up8_d2DmAhWVAv-0" value="" style="image;aspect=fixed;html=1;points=[];align=center;fontSize=15;image=img/lib/azure2/networking/Virtual_Network_Gateways.svg;" vertex="1" parent="bJ2ua2rP26rWkI42sY4k-1">
          <mxGeometry x="901.6185204347827" y="514.68826739427" width="29.254660092301442" height="38.82351456433445" as="geometry" />
        </mxCell>
        <mxCell id="IYN8j_Up8_d2DmAhWVAv-1" value="&lt;div style=&quot;font-size: 15px;&quot;&gt;&lt;div style=&quot;font-size: 15px;&quot;&gt;VPN&amp;nbsp;&lt;/div&gt;&lt;div style=&quot;font-size: 15px;&quot;&gt;Gateway&lt;/div&gt;&lt;/div&gt;" style="rounded=0;whiteSpace=wrap;html=1;align=right;fillColor=none;strokeColor=none;fontSize=15;" vertex="1" parent="bJ2ua2rP26rWkI42sY4k-1">
          <mxGeometry x="805.0041317391305" y="514.4025485509256" width="91.34956521739129" height="39.39495225102319" as="geometry" />
        </mxCell>
        <mxCell id="IYN8j_Up8_d2DmAhWVAv-2" value="&lt;div style=&quot;font-size: 15px;&quot;&gt;&lt;b style=&quot;font-size: 15px;&quot;&gt;Branch2&lt;/b&gt;&lt;/div&gt;&lt;div style=&quot;font-size: 15px;&quot;&gt;10.20.0.0/20&lt;/div&gt;&lt;div style=&quot;font-size: 15px;&quot;&gt;10.20.16.0/20&lt;/div&gt;&lt;div style=&quot;font-size: 15px;&quot;&gt;fd00:db8:20::/56&lt;/div&gt;&lt;div style=&quot;font-size: 15px;&quot;&gt;fd00:db8:20:aa00::/56&lt;br style=&quot;font-size: 15px;&quot;&gt;&lt;/div&gt;" style="rounded=0;whiteSpace=wrap;html=1;dashed=1;align=left;verticalAlign=top;spacingTop=1;spacing=1;spacingLeft=4;spacingBottom=1;spacingRight=1;fillColor=#f5f5f5;strokeColor=#000000;fontColor=#333333;fontSize=15;" vertex="1" parent="bJ2ua2rP26rWkI42sY4k-1">
          <mxGeometry x="1086.69" y="693" width="266.06" height="173" as="geometry" />
        </mxCell>
        <mxCell id="IYN8j_Up8_d2DmAhWVAv-3" value="" style="image;aspect=fixed;html=1;points=[];align=center;fontSize=15;image=img/lib/azure2/compute/Virtual_Machine.svg;" vertex="1" parent="bJ2ua2rP26rWkI42sY4k-1">
          <mxGeometry x="1244.2669130434783" y="810.3349249658935" width="34.46157851622394" height="31.972306111804848" as="geometry" />
        </mxCell>
        <mxCell id="IYN8j_Up8_d2DmAhWVAv-4" value="&lt;div style=&quot;font-size: 15px;&quot;&gt;&lt;div style=&quot;font-size: 15px;&quot;&gt;10.20.0.0/24&lt;/div&gt;&lt;div style=&quot;font-size: 15px;&quot;&gt;fd00:db8:20::/64&lt;/div&gt;&lt;/div&gt;" style="rounded=0;whiteSpace=wrap;html=1;align=center;fontSize=15;strokeColor=#666666;" vertex="1" parent="bJ2ua2rP26rWkI42sY4k-1">
          <mxGeometry x="1104" y="806.34" width="124.28" height="45.66" as="geometry" />
        </mxCell>
        <mxCell id="IYN8j_Up8_d2DmAhWVAv-5" value="" style="image;aspect=fixed;html=1;points=[];align=center;fontSize=15;image=img/lib/azure2/networking/Virtual_Networks.svg;" vertex="1" parent="bJ2ua2rP26rWkI42sY4k-1">
          <mxGeometry x="1161.581608695652" y="684.9960845839017" width="30.830438036383246" height="18.406913375796222" as="geometry" />
        </mxCell>
        <mxCell id="IYN8j_Up8_d2DmAhWVAv-6" value="" style="image;aspect=fixed;html=1;points=[];align=center;fontSize=15;image=img/lib/azure2/networking/Virtual_Router.svg;" vertex="1" parent="bJ2ua2rP26rWkI42sY4k-1">
          <mxGeometry x="1238.9115447826086" y="718.1742428376533" width="33.11417418722645" height="33.11417418722645" as="geometry" />
        </mxCell>
        <mxCell id="IYN8j_Up8_d2DmAhWVAv-7" value="" style="image;aspect=fixed;html=1;points=[];align=center;fontSize=15;image=img/lib/azure2/networking/Virtual_Network_Gateways.svg;" vertex="1" parent="bJ2ua2rP26rWkI42sY4k-1">
          <mxGeometry x="1116.3236060869567" y="514.68826739427" width="29.254660092301442" height="38.82351456433445" as="geometry" />
        </mxCell>
        <mxCell id="IYN8j_Up8_d2DmAhWVAv-8" value="&lt;div style=&quot;font-size: 15px;&quot;&gt;&lt;div style=&quot;font-size: 15px;&quot;&gt;ExR&amp;nbsp;&lt;/div&gt;&lt;div style=&quot;font-size: 15px;&quot;&gt;Gateway&lt;/div&gt;&lt;/div&gt;" style="rounded=0;whiteSpace=wrap;html=1;align=left;fillColor=none;strokeColor=none;fontSize=15;" vertex="1" parent="bJ2ua2rP26rWkI42sY4k-1">
          <mxGeometry x="1150.9992173913042" y="514.4025485509256" width="91.34956521739129" height="39.39495225102319" as="geometry" />
        </mxCell>
        <mxCell id="IYN8j_Up8_d2DmAhWVAv-9" value="" style="image;aspect=fixed;html=1;points=[];align=center;fontSize=15;image=img/lib/azure2/networking/ExpressRoute_Circuits.svg;" vertex="1" parent="bJ2ua2rP26rWkI42sY4k-1">
          <mxGeometry x="1173.046470869565" y="620.3328785811732" width="37.464691554582764" height="34.25604226264805" as="geometry" />
        </mxCell>
        <mxCell id="IYN8j_Up8_d2DmAhWVAv-11" value="" style="endArrow=none;html=1;rounded=0;fontSize=15;entryX=0.654;entryY=0.957;entryDx=0;entryDy=0;entryPerimeter=0;" edge="1" parent="bJ2ua2rP26rWkI42sY4k-1" source="IYN8j_Up8_d2DmAhWVAv-9" target="IYN8j_Up8_d2DmAhWVAv-7">
          <mxGeometry width="50" height="50" relative="1" as="geometry">
            <mxPoint x="1209.4703771180789" y="635.4224971591946" as="sourcePoint" />
            <mxPoint x="1161.5782661792582" y="586.1492000939832" as="targetPoint" />
            <Array as="points">
              <mxPoint x="1163" y="594" />
            </Array>
          </mxGeometry>
        </mxCell>
        <mxCell id="IYN8j_Up8_d2DmAhWVAv-12" value="" style="endArrow=none;html=1;rounded=0;fontSize=15;" edge="1" parent="bJ2ua2rP26rWkI42sY4k-1" source="IYN8j_Up8_d2DmAhWVAv-6" target="IYN8j_Up8_d2DmAhWVAv-9">
          <mxGeometry width="50" height="50" relative="1" as="geometry">
            <mxPoint x="1334.9825860869564" y="661.1671214188267" as="sourcePoint" />
            <mxPoint x="1314.4289339130437" y="616.6336971350613" as="targetPoint" />
          </mxGeometry>
        </mxCell>
        <mxCell id="2GLu6VrFUA-j1vRLhtvP-1" value="" style="endArrow=classic;startArrow=classic;html=1;rounded=0;entryX=0.453;entryY=0.998;entryDx=0;entryDy=0;fontSize=15;entryPerimeter=0;exitX=0.148;exitY=0.007;exitDx=0;exitDy=0;exitPerimeter=0;" edge="1" parent="bJ2ua2rP26rWkI42sY4k-1" source="0yRXkISWtA-7Xl8DejMg-0" target="0yRXkISWtA-7Xl8DejMg-2">
          <mxGeometry width="50" height="50" relative="1" as="geometry">
            <mxPoint x="791" y="318" as="sourcePoint" />
            <mxPoint x="791" y="197" as="targetPoint" />
          </mxGeometry>
        </mxCell>
        <mxCell id="2GLu6VrFUA-j1vRLhtvP-2" value="Vnet Peering" style="edgeLabel;html=1;align=center;verticalAlign=middle;resizable=0;points=[];fontSize=15;" connectable="0" vertex="1" parent="2GLu6VrFUA-j1vRLhtvP-1">
          <mxGeometry x="0.0178" relative="1" as="geometry">
            <mxPoint as="offset" />
          </mxGeometry>
        </mxCell>
        <mxCell id="IJefrolB8mNHMplXJWJt-14" style="edgeStyle=orthogonalEdgeStyle;curved=1;rounded=0;orthogonalLoop=1;jettySize=auto;html=1;entryX=0.01;entryY=0.574;entryDx=0;entryDy=0;entryPerimeter=0;fontSize=15;exitX=0.974;exitY=0.768;exitDx=0;exitDy=0;exitPerimeter=0;" edge="1" parent="bJ2ua2rP26rWkI42sY4k-1" source="0yRXkISWtA-7Xl8DejMg-15" target="0yRXkISWtA-7Xl8DejMg-20">
          <mxGeometry relative="1" as="geometry">
            <mxPoint x="1350.8000000000002" y="129.12" as="sourcePoint" />
            <mxPoint x="1257.8000000000002" y="143.12" as="targetPoint" />
          </mxGeometry>
        </mxCell>
        <mxCell id="IJefrolB8mNHMplXJWJt-28" value="" style="image;aspect=fixed;html=1;points=[];align=center;fontSize=15;image=img/lib/azure2/networking/Virtual_Networks.svg;" vertex="1" parent="bJ2ua2rP26rWkI42sY4k-1">
          <mxGeometry x="772.0016086956521" y="684.9960845839017" width="30.830438036383246" height="18.406913375796222" as="geometry" />
        </mxCell>
        <mxCell id="GBAD5B3DZu4UUgKBy1_D-1" value="&lt;div style=&quot;font-size: 15px;&quot;&gt;&lt;div style=&quot;font-size: 15px;&quot;&gt;GatewaySubnet&lt;/div&gt;&lt;div style=&quot;font-size: 15px;&quot;&gt;10.11.16.0/24&lt;/div&gt;&lt;div style=&quot;font-size: 15px;&quot;&gt;fd00:db8:11:aa16::/64&lt;/div&gt;&lt;/div&gt;" style="rounded=0;whiteSpace=wrap;html=1;align=center;fontSize=15;strokeColor=#666666;" vertex="1" parent="bJ2ua2rP26rWkI42sY4k-1">
          <mxGeometry x="937.71" y="504.25" width="170" height="67.75" as="geometry" />
        </mxCell>
        <UserObject label="&lt;p style=&quot;line-height: 200%;&quot;&gt;&lt;font color=&quot;#1a1a1a&quot;&gt;&lt;span style=&quot;font-size: 16px;&quot;&gt;&lt;b&gt;IPv6 (Dual Stack) Support&lt;/b&gt;&lt;/span&gt;&lt;/font&gt;&lt;br&gt;&lt;/p&gt;&lt;div&gt;&lt;span style=&quot;font-size: 16px; color: rgb(26, 26, 26); background-color: initial;&quot;&gt;&lt;br&gt;&lt;/span&gt;&lt;/div&gt;&lt;div&gt;&lt;span style=&quot;font-size: 16px; color: rgb(26, 26, 26); background-color: initial;&quot;&gt;1.&amp;nbsp;Dual stack Virtual Network&lt;/span&gt;&lt;/div&gt;&lt;div&gt;&lt;span style=&quot;font-size: 16px; color: rgb(26, 26, 26); background-color: initial;&quot;&gt;&lt;br&gt;&lt;/span&gt;&lt;/div&gt;&lt;div&gt;&lt;div style=&quot;line-height: 26.6px;&quot;&gt;&lt;span style=&quot;font-size: 16px; color: rgb(26, 26, 26); background-color: initial;&quot;&gt;2. Virtual machine (Windows, Linux) - multi-NIC&lt;/span&gt;&lt;/div&gt;&lt;/div&gt;&lt;div&gt;&lt;span style=&quot;font-size: 16px; color: rgb(26, 26, 26); background-color: initial;&quot;&gt;&lt;br&gt;&lt;/span&gt;&lt;/div&gt;&lt;div&gt;&lt;span style=&quot;font-size: 16px; color: rgb(26, 26, 26); background-color: initial;&quot;&gt;3. Network Security Group (NSG)&lt;/span&gt;&lt;/div&gt;&lt;div&gt;&lt;span style=&quot;font-size: 16px; color: rgb(26, 26, 26); background-color: initial;&quot;&gt;&lt;br&gt;&lt;/span&gt;&lt;/div&gt;&lt;div&gt;&lt;span style=&quot;font-size: 16px; color: rgb(26, 26, 26); background-color: initial;&quot;&gt;4. User-Defined Routes (UDR)&lt;/span&gt;&lt;/div&gt;&lt;div&gt;&lt;span style=&quot;font-size: 16px; color: rgb(26, 26, 26); background-color: initial;&quot;&gt;&lt;br&gt;&lt;/span&gt;&lt;/div&gt;&lt;div style=&quot;line-height: 160%;&quot;&gt;&lt;span style=&quot;font-size: 16px; color: rgb(26, 26, 26); background-color: initial;&quot;&gt;5. Azure DNS (AAAA) records&lt;/span&gt;&lt;/div&gt;&lt;div&gt;&lt;span style=&quot;font-size: 16px; color: rgb(26, 26, 26); background-color: initial;&quot;&gt;&lt;br&gt;&lt;/span&gt;&lt;/div&gt;&lt;div style=&quot;line-height: 160%;&quot;&gt;&lt;font color=&quot;#1a1a1a&quot;&gt;&lt;span style=&quot;font-size: 16px;&quot;&gt;6. Load balancer (public and private)&lt;/span&gt;&lt;/font&gt;&lt;/div&gt;&lt;div&gt;&lt;span style=&quot;font-size: 16px; color: rgb(26, 26, 26); background-color: initial;&quot;&gt;&lt;br&gt;&lt;/span&gt;&lt;/div&gt;&lt;div&gt;&lt;span style=&quot;font-size: 16px; background-color: initial;&quot;&gt;7. &lt;font color=&quot;#1a1a1a&quot;&gt;VNet peering (regional and global)&lt;/font&gt;&lt;/span&gt;&lt;/div&gt;&lt;div&gt;&lt;span style=&quot;font-size: 16px; background-color: initial;&quot;&gt;&lt;font color=&quot;#1a1a1a&quot;&gt;&lt;br&gt;&lt;/font&gt;&lt;/span&gt;&lt;/div&gt;&lt;div&gt;&lt;span style=&quot;font-size: 16px; background-color: initial;&quot;&gt;&lt;font color=&quot;#1a1a1a&quot;&gt;8. AKS CNI Overlay dual-stack&lt;/font&gt;&lt;/span&gt;&lt;/div&gt;&lt;p&gt;&lt;/p&gt;" id="EcYpv5kJXtkifqaUbWwn-1">
          <mxCell style="rounded=1;whiteSpace=wrap;html=1;fontStyle=0;align=left;arcSize=0;verticalAlign=top;spacingLeft=10;spacingTop=5;strokeColor=#d1d1d1;fillColor=default;strokeWidth=1;fontSize=14;" vertex="1" parent="bJ2ua2rP26rWkI42sY4k-1">
            <mxGeometry x="161" y="42" width="362" height="734" as="geometry" />
          </mxCell>
        </UserObject>
        <mxCell id="0yRXkISWtA-7Xl8DejMg-16" value="&lt;div style=&quot;font-size: 15px;&quot;&gt;&lt;div style=&quot;font-size: 15px;&quot;&gt;UntrustSubnet&lt;/div&gt;&lt;div style=&quot;font-size: 15px;&quot;&gt;10.11.1.0/24&lt;/div&gt;&lt;div style=&quot;font-size: 15px;&quot;&gt;fd00:db8:11:1::/64&lt;/div&gt;&lt;/div&gt;" style="rounded=0;whiteSpace=wrap;html=1;align=center;fontSize=15;strokeColor=#666666;" vertex="1" parent="bJ2ua2rP26rWkI42sY4k-1">
          <mxGeometry x="1136.4199999999998" y="378.00000000000006" width="141.26" height="61.66" as="geometry" />
        </mxCell>
        <UserObject label="Virtual Machines" link="data:action/json,{&quot;actions&quot;:[{&quot;toggle&quot;: {&quot;cells&quot;: [&quot;4dqZTrc1SoPVpxpCQpWB-0&quot;]}}]}" id="IJefrolB8mNHMplXJWJt-0">
          <mxCell style="rounded=1;whiteSpace=wrap;html=1;fontStyle=0;strokeColor=#b3b3b3;arcSize=0;fontColor=#616161;fontSize=15;flipV=1;flipH=1;" vertex="1" parent="bJ2ua2rP26rWkI42sY4k-1">
            <mxGeometry x="19" y="42" width="123.5" height="32" as="geometry" />
          </mxCell>
        </UserObject>
        <UserObject label="Vnet Gateway" link="data:action/json,{&quot;actions&quot;:[{&quot;toggle&quot;: {&quot;cells&quot;: [&quot;TxWsSp8CMvpaBGWYidcT-0&quot;]}}]}" id="IJefrolB8mNHMplXJWJt-1">
          <mxCell style="rounded=1;whiteSpace=wrap;html=1;fontStyle=0;strokeColor=#b3b3b3;arcSize=0;fontColor=#616161;fontSize=15;align=center;verticalAlign=middle;fontFamily=Helvetica;fillColor=default;flipV=1;flipH=1;" vertex="1" parent="bJ2ua2rP26rWkI42sY4k-1">
            <mxGeometry x="19" y="104" width="123.5" height="32" as="geometry" />
          </mxCell>
        </UserObject>
        <UserObject label="Routing + NSG" link="data:action/json,{&quot;actions&quot;:[{&quot;toggle&quot;: {&quot;cells&quot;: [&quot;7-8NA--VRh3qNjhgh93t-1&quot;]}}]}" id="IJefrolB8mNHMplXJWJt-3">
          <mxCell style="rounded=1;whiteSpace=wrap;html=1;fontStyle=0;strokeColor=#b3b3b3;arcSize=0;fontColor=#616161;fontSize=15;flipV=1;flipH=1;" vertex="1" parent="bJ2ua2rP26rWkI42sY4k-1">
            <mxGeometry x="19" y="167" width="123.5" height="32" as="geometry" />
          </mxCell>
        </UserObject>
        <UserObject label="Load Balancer" link="data:action/json,{&quot;actions&quot;:[{&quot;toggle&quot;: {&quot;cells&quot;: [&quot;mJIhDMjIjZcE_hauMBUq-0&quot;]}}]}" id="IJefrolB8mNHMplXJWJt-4">
          <mxCell style="rounded=1;whiteSpace=wrap;html=1;fontStyle=0;strokeColor=#b3b3b3;arcSize=0;fontColor=#616161;fontSize=15;flipV=1;flipH=1;" vertex="1" parent="bJ2ua2rP26rWkI42sY4k-1">
            <mxGeometry x="19" y="229" width="123.5" height="32" as="geometry" />
          </mxCell>
        </UserObject>
        <UserObject label="Limitations" link="data:action/json,{&quot;actions&quot;:[{&quot;toggle&quot;: {&quot;cells&quot;: [&quot;TxWsSp8CMvpaBGWYidcT-56&quot;]}}]}" id="EcYpv5kJXtkifqaUbWwn-35">
          <mxCell style="rounded=1;whiteSpace=wrap;html=1;fontStyle=0;strokeColor=#b3b3b3;arcSize=0;fontSize=15;fillColor=default;align=center;verticalAlign=middle;fontFamily=Helvetica;fontColor=#616161;flipV=1;flipH=1;" vertex="1" parent="bJ2ua2rP26rWkI42sY4k-1">
            <mxGeometry x="19" y="416" width="123.5" height="33" as="geometry" />
          </mxCell>
        </UserObject>
        <UserObject label="DNS" link="data:action/json,{&quot;actions&quot;:[{&quot;toggle&quot;:{&quot;cells&quot;:[&quot;EcYpv5kJXtkifqaUbWwn-33&quot;]}}]}" id="nB-6X9JxhL7OyfDC8RNj-0">
          <mxCell style="rounded=1;whiteSpace=wrap;html=1;fontStyle=0;strokeColor=#b3b3b3;arcSize=0;fontColor=#616161;fontSize=15;flipV=1;flipH=1;" vertex="1" parent="bJ2ua2rP26rWkI42sY4k-1">
            <mxGeometry x="19" y="292" width="123.5" height="32" as="geometry" />
          </mxCell>
        </UserObject>
        <mxCell id="EcYpv5kJXtkifqaUbWwn-43" value="" style="endArrow=none;html=1;rounded=0;fontSize=15;exitX=0.503;exitY=-0.039;exitDx=0;exitDy=0;exitPerimeter=0;entryX=0.389;entryY=0.875;entryDx=0;entryDy=0;entryPerimeter=0;" edge="1" parent="bJ2ua2rP26rWkI42sY4k-1" source="0yRXkISWtA-7Xl8DejMg-35" target="IYN8j_Up8_d2DmAhWVAv-0">
          <mxGeometry width="50" height="50" relative="1" as="geometry">
            <mxPoint x="1026.54" y="682.16" as="sourcePoint" />
            <mxPoint x="980.54" y="614.16" as="targetPoint" />
          </mxGeometry>
        </mxCell>
        <mxCell id="EcYpv5kJXtkifqaUbWwn-32" value="&lt;div style=&quot;font-size: 15px;&quot;&gt;&lt;div style=&quot;font-size: 15px;&quot;&gt;ExpressRoute C&lt;span style=&quot;background-color: initial;&quot;&gt;ircuit&lt;/span&gt;&lt;/div&gt;&lt;/div&gt;" style="rounded=0;whiteSpace=wrap;html=1;align=center;fillColor=none;strokeColor=none;fontSize=15;" vertex="1" parent="bJ2ua2rP26rWkI42sY4k-1">
          <mxGeometry x="1221" y="617.7658997124971" width="76" height="39.39" as="geometry" />
        </mxCell>
        <UserObject label="Network Egress" link="data:action/json,{&quot;actions&quot;:[{&quot;toggle&quot;:{&quot;cells&quot;:[&quot;EcYpv5kJXtkifqaUbWwn-31&quot;]}}]}" id="SP6P7kpSR7Q2aPnXeVnb-4">
          <mxCell style="rounded=1;whiteSpace=wrap;html=1;fontStyle=0;strokeColor=#b3b3b3;arcSize=0;fontSize=15;fillColor=default;align=center;verticalAlign=middle;fontFamily=Helvetica;fontColor=#616161;flipV=1;flipH=1;" vertex="1" parent="bJ2ua2rP26rWkI42sY4k-1">
            <mxGeometry x="19" y="354" width="123.5" height="33" as="geometry" />
          </mxCell>
        </UserObject>
        <mxCell id="EzRBEl8uBjMTjhNUBAp0-6" value="" style="endArrow=classic;startArrow=classic;html=1;rounded=0;entryX=0.191;entryY=-0.041;entryDx=0;entryDy=0;fontSize=15;exitX=0.75;exitY=1;exitDx=0;exitDy=0;strokeWidth=5;strokeColor=#FF8000;entryPerimeter=0;" edge="1" parent="bJ2ua2rP26rWkI42sY4k-1" source="EcYpv5kJXtkifqaUbWwn-22" target="EcYpv5kJXtkifqaUbWwn-25">
          <mxGeometry width="50" height="50" relative="1" as="geometry">
            <mxPoint x="843" y="241" as="sourcePoint" />
            <mxPoint x="948" y="240" as="targetPoint" />
          </mxGeometry>
        </mxCell>
        <mxCell id="IJefrolB8mNHMplXJWJt-17" value="&lt;div style=&quot;&quot;&gt;&lt;div style=&quot;&quot;&gt;&lt;br&gt;&lt;/div&gt;&lt;/div&gt;" style="rounded=0;whiteSpace=wrap;html=1;align=center;fillColor=none;strokeColor=none;fontSize=14;" vertex="1" parent="bJ2ua2rP26rWkI42sY4k-1">
          <mxGeometry x="1358" y="238.6" width="71" height="39.39" as="geometry" />
        </mxCell>
        <mxCell id="EcYpv5kJXtkifqaUbWwn-85" value="" style="endArrow=classic;html=1;rounded=0;strokeWidth=6;fillColor=#f8cecc;strokeColor=#006600;entryX=0.023;entryY=0.626;entryDx=0;entryDy=0;entryPerimeter=0;exitX=0.778;exitY=0.109;exitDx=0;exitDy=0;exitPerimeter=0;" edge="1" parent="bJ2ua2rP26rWkI42sY4k-1" source="0yRXkISWtA-7Xl8DejMg-9" target="u5yaHZLS7aTjfBpLh_kH-13">
          <mxGeometry width="50" height="50" relative="1" as="geometry">
            <mxPoint x="1484" y="126" as="sourcePoint" />
            <mxPoint x="1368" y="43" as="targetPoint" />
            <Array as="points" />
          </mxGeometry>
        </mxCell>
        <mxCell id="2GLu6VrFUA-j1vRLhtvP-0" value="" style="image;aspect=fixed;html=1;points=[];align=center;fontSize=15;image=img/lib/azure2/networking/Load_Balancers.svg;" vertex="1" parent="bJ2ua2rP26rWkI42sY4k-1">
          <mxGeometry x="923.6793043478262" y="387.7014597544338" width="39.96538263975606" height="39.96538263975606" as="geometry" />
        </mxCell>
        <mxCell id="0yRXkISWtA-7Xl8DejMg-30" value="" style="image;aspect=fixed;html=1;points=[];align=center;fontSize=15;image=img/lib/azure2/networking/Load_Balancers.svg;" vertex="1" parent="bJ2ua2rP26rWkI42sY4k-1">
          <mxGeometry x="1257.679304347826" y="387.7014597544338" width="39.96538263975606" height="39.96538263975606" as="geometry" />
        </mxCell>
        <mxCell id="TxWsSp8CMvpaBGWYidcT-56" value="Limitations" style="" visible="0" parent="bJ2ua2rP26rWkI42sY4k-0" />
        <mxCell id="EcYpv5kJXtkifqaUbWwn-10" value="&lt;p style=&quot;line-height: 28px;&quot;&gt;&lt;font color=&quot;#1a1a1a&quot;&gt;&lt;span style=&quot;font-size: 16px;&quot;&gt;&lt;b&gt;General Limitations&lt;/b&gt;&lt;/span&gt;&lt;/font&gt;&lt;/p&gt;&lt;div&gt;&lt;span style=&quot;font-size: 16px; color: rgb(26, 26, 26); background-color: initial;&quot;&gt;&lt;br&gt;&lt;/span&gt;&lt;/div&gt;&lt;div&gt;&lt;br&gt;&lt;/div&gt;&lt;div&gt;&lt;span style=&quot;font-size: 16px; color: rgb(26, 26, 26); background-color: initial;&quot;&gt;1.&amp;nbsp;&lt;/span&gt;&lt;span style=&quot;background-color: initial; font-size: 16px;&quot;&gt;&lt;font color=&quot;#1a1a1a&quot;&gt;App Gateway IPv6 is public preview&lt;/font&gt;&lt;/span&gt;&lt;/div&gt;&lt;div&gt;&lt;span style=&quot;font-size: 16px; color: rgb(26, 26, 26); background-color: initial;&quot;&gt;&lt;br&gt;&lt;/span&gt;&lt;/div&gt;&lt;div&gt;&lt;span style=&quot;font-size: 16px; color: rgb(26, 26, 26); background-color: initial;&quot;&gt;2. Always dual-stack, no&amp;nbsp;&lt;/span&gt;&lt;span style=&quot;background-color: initial; font-size: 16px;&quot;&gt;&lt;font color=&quot;#1a1a1a&quot;&gt;IPv6-only&lt;/font&gt;&lt;/span&gt;&lt;/div&gt;&lt;div&gt;&lt;br&gt;&lt;/div&gt;&lt;div&gt;&lt;span style=&quot;font-size: 16px; color: rgb(26, 26, 26); background-color: initial;&quot;&gt;3. IPv6 not supported on Bastion&lt;/span&gt;&lt;/div&gt;&lt;p&gt;&lt;/p&gt;" style="rounded=1;whiteSpace=wrap;html=1;fontStyle=0;align=left;arcSize=0;verticalAlign=top;spacingLeft=10;spacingTop=5;strokeColor=#d1d1d1;fillColor=default;strokeWidth=1;fontSize=14;" vertex="1" parent="TxWsSp8CMvpaBGWYidcT-56">
          <mxGeometry x="161" y="40" width="362" height="734" as="geometry" />
        </mxCell>
        <mxCell id="EcYpv5kJXtkifqaUbWwn-82" value="Bastion" style="edgeLabel;html=1;align=center;verticalAlign=middle;resizable=0;points=[];fontSize=15;" connectable="0" vertex="1" parent="TxWsSp8CMvpaBGWYidcT-56">
          <mxGeometry x="0.0178" relative="1" as="geometry">
            <mxPoint x="692" y="324" as="offset" />
          </mxGeometry>
        </mxCell>
        <mxCell id="EcYpv5kJXtkifqaUbWwn-66" value="" style="image;aspect=fixed;html=1;points=[];align=center;fontSize=12;image=img/lib/azure2/networking/Bastions.svg;" vertex="1" parent="TxWsSp8CMvpaBGWYidcT-56">
          <mxGeometry x="669" y="269" width="37.53" height="44" as="geometry" />
        </mxCell>
        <mxCell id="EcYpv5kJXtkifqaUbWwn-71" style="edgeStyle=orthogonalEdgeStyle;rounded=0;orthogonalLoop=1;jettySize=auto;html=1;strokeWidth=6;strokeColor=#FF8000;" edge="1" parent="TxWsSp8CMvpaBGWYidcT-56" source="EcYpv5kJXtkifqaUbWwn-70" target="EcYpv5kJXtkifqaUbWwn-66">
          <mxGeometry relative="1" as="geometry" />
        </mxCell>
        <mxCell id="EcYpv5kJXtkifqaUbWwn-70" value="&lt;div style=&quot;font-size: 15px;&quot;&gt;&lt;div style=&quot;font-size: 15px;&quot;&gt;IPv6&lt;/div&gt;&lt;/div&gt;" style="rounded=0;whiteSpace=wrap;html=1;align=center;fontSize=15;strokeColor=#FF9933;strokeWidth=6;" vertex="1" parent="TxWsSp8CMvpaBGWYidcT-56">
          <mxGeometry x="552" y="274.5" width="58" height="33" as="geometry" />
        </mxCell>
        <mxCell id="EcYpv5kJXtkifqaUbWwn-81" value="" style="endArrow=classic;html=1;rounded=0;strokeWidth=6;exitX=0.37;exitY=-0.035;exitDx=0;exitDy=0;exitPerimeter=0;strokeColor=#FF8000;align=center;verticalAlign=middle;fontFamily=Helvetica;fontSize=11;fontColor=default;labelBackgroundColor=default;" edge="1" parent="TxWsSp8CMvpaBGWYidcT-56" source="EcYpv5kJXtkifqaUbWwn-66">
          <mxGeometry width="50" height="50" relative="1" as="geometry">
            <mxPoint x="689.11" y="216.19" as="sourcePoint" />
            <mxPoint x="728" y="183" as="targetPoint" />
          </mxGeometry>
        </mxCell>
        <mxCell id="EcYpv5kJXtkifqaUbWwn-76" value="&lt;div style=&quot;font-size: 15px;&quot;&gt;&lt;div style=&quot;font-size: 15px;&quot;&gt;&lt;br&gt;&lt;/div&gt;&lt;/div&gt;" style="rounded=0;whiteSpace=wrap;html=1;align=center;fontSize=15;strokeColor=#FF9933;strokeWidth=6;fillColor=none;" vertex="1" parent="TxWsSp8CMvpaBGWYidcT-56">
          <mxGeometry x="732" y="154" width="115" height="24" as="geometry" />
        </mxCell>
        <UserObject label="Limitations" link="data:action/json,{&quot;actions&quot;:[{&quot;toggle&quot;:{&quot;cells&quot;:[&quot;TxWsSp8CMvpaBGWYidcT-56&quot;]}}]}" id="SP6P7kpSR7Q2aPnXeVnb-2">
          <mxCell style="rounded=1;whiteSpace=wrap;html=1;fontStyle=0;strokeColor=#82b366;arcSize=0;fontSize=15;fillColor=#d5e8d4;align=center;verticalAlign=middle;fontFamily=Helvetica;flipV=0;flipH=1;" vertex="1" parent="TxWsSp8CMvpaBGWYidcT-56">
            <mxGeometry x="19" y="416" width="123.5" height="33" as="geometry" />
          </mxCell>
        </UserObject>
        <mxCell id="EcYpv5kJXtkifqaUbWwn-31" value="Network Egress" style="" visible="0" parent="bJ2ua2rP26rWkI42sY4k-0" />
        <mxCell id="EcYpv5kJXtkifqaUbWwn-58" value="&lt;p style=&quot;line-height: 200%;&quot;&gt;&lt;font color=&quot;#1a1a1a&quot;&gt;&lt;span style=&quot;font-size: 16px;&quot;&gt;&lt;b&gt;Network Egress&lt;/b&gt;&lt;/span&gt;&lt;/font&gt;&lt;/p&gt;&lt;div&gt;&lt;span style=&quot;font-size: 16px; color: rgb(26, 26, 26); background-color: initial;&quot;&gt;&lt;br&gt;&lt;/span&gt;&lt;/div&gt;&lt;div&gt;&lt;div style=&quot;line-height: 16.8px;&quot;&gt;&lt;span style=&quot;background-color: initial; color: rgb(26, 26, 26); font-size: 16px;&quot;&gt;1.&amp;nbsp;&lt;/span&gt;&lt;span style=&quot;background-color: initial; font-size: 16px;&quot;&gt;&lt;font color=&quot;#1a1a1a&quot;&gt;No NAT gateway support for IPv6 yet&lt;/font&gt;&lt;/span&gt;&lt;/div&gt;&lt;div style=&quot;line-height: 16.8px;&quot;&gt;&lt;span style=&quot;background-color: initial; font-size: 16px;&quot;&gt;&lt;font color=&quot;#1a1a1a&quot;&gt;&lt;br&gt;&lt;/font&gt;&lt;/span&gt;&lt;/div&gt;&lt;div style=&quot;line-height: 16.8px;&quot;&gt;&lt;span style=&quot;background-color: initial; font-size: 16px;&quot;&gt;&lt;font color=&quot;#1a1a1a&quot;&gt;2.&amp;nbsp;&lt;/font&gt;&lt;/span&gt;&lt;span style=&quot;background-color: initial; font-size: 16px;&quot;&gt;&lt;font color=&quot;#1a1a1a&quot;&gt;IPv6 Outbound SNAT (public load balancer)&lt;/font&gt;&lt;/span&gt;&lt;/div&gt;&lt;/div&gt;&lt;p&gt;&lt;/p&gt;" style="rounded=1;whiteSpace=wrap;html=1;fontStyle=0;align=left;arcSize=0;verticalAlign=top;spacingLeft=10;spacingTop=5;strokeColor=#d1d1d1;fillColor=default;strokeWidth=1;fontSize=14;" vertex="1" parent="EcYpv5kJXtkifqaUbWwn-31">
          <mxGeometry x="161" y="42" width="362" height="734" as="geometry" />
        </mxCell>
        <mxCell id="u5yaHZLS7aTjfBpLh_kH-4" value="Public IP" style="edgeLabel;html=1;align=center;verticalAlign=middle;resizable=0;points=[];fontSize=15;" connectable="0" vertex="1" parent="EcYpv5kJXtkifqaUbWwn-31">
          <mxGeometry x="0.0178" relative="1" as="geometry">
            <mxPoint x="216" y="22" as="offset" />
          </mxGeometry>
        </mxCell>
        <mxCell id="u5yaHZLS7aTjfBpLh_kH-18" value="" style="endArrow=classic;html=1;rounded=0;strokeWidth=6;fillColor=#f8cecc;strokeColor=#006600;exitX=-0.159;exitY=1.256;exitDx=0;exitDy=0;exitPerimeter=0;" edge="1" parent="EcYpv5kJXtkifqaUbWwn-31" source="u5yaHZLS7aTjfBpLh_kH-22">
          <mxGeometry width="50" height="50" relative="1" as="geometry">
            <mxPoint x="1297" y="409" as="sourcePoint" />
            <mxPoint x="1501" y="378" as="targetPoint" />
            <Array as="points" />
          </mxGeometry>
        </mxCell>
        <UserObject label="Network Egress" link="data:action/json,{&quot;actions&quot;:[{&quot;toggle&quot;:{&quot;cells&quot;:[&quot;EcYpv5kJXtkifqaUbWwn-31&quot;]}}]}" id="SP6P7kpSR7Q2aPnXeVnb-11">
          <mxCell style="rounded=1;whiteSpace=wrap;html=1;fontStyle=0;strokeColor=#82b366;arcSize=0;fontSize=15;fillColor=#d5e8d4;align=center;verticalAlign=middle;fontFamily=Helvetica;" vertex="1" parent="EcYpv5kJXtkifqaUbWwn-31">
            <mxGeometry x="19" y="354" width="123.5" height="33" as="geometry" />
          </mxCell>
        </UserObject>
        <mxCell id="u5yaHZLS7aTjfBpLh_kH-15" value="" style="endArrow=classic;html=1;rounded=0;strokeWidth=6;fillColor=#f8cecc;strokeColor=#006600;" edge="1" parent="EcYpv5kJXtkifqaUbWwn-31">
          <mxGeometry width="50" height="50" relative="1" as="geometry">
            <mxPoint x="1187" y="195" as="sourcePoint" />
            <mxPoint x="1054" y="379.4999999999998" as="targetPoint" />
            <Array as="points" />
          </mxGeometry>
        </mxCell>
        <mxCell id="u5yaHZLS7aTjfBpLh_kH-2" value="" style="image;aspect=fixed;html=1;points=[];align=center;fontSize=12;image=img/lib/azure2/networking/Public_IP_Addresses.svg;" vertex="1" parent="EcYpv5kJXtkifqaUbWwn-31">
          <mxGeometry x="1203" y="207" width="42.5" height="34" as="geometry" />
        </mxCell>
        <mxCell id="u5yaHZLS7aTjfBpLh_kH-6" value="&lt;div style=&quot;font-size: 14px;&quot;&gt;&lt;div style=&quot;font-size: 14px;&quot;&gt;Public IP&lt;/div&gt;&lt;/div&gt;" style="rounded=0;whiteSpace=wrap;html=1;align=center;fillColor=none;strokeColor=none;fontSize=14;fontStyle=1" vertex="1" parent="EcYpv5kJXtkifqaUbWwn-31">
          <mxGeometry x="1244.27" y="210" width="66.73" height="39.39" as="geometry" />
        </mxCell>
        <mxCell id="u5yaHZLS7aTjfBpLh_kH-7" value="" style="endArrow=classic;html=1;rounded=0;strokeWidth=6;fillColor=#f8cecc;strokeColor=#006600;exitX=0.512;exitY=1.047;exitDx=0;exitDy=0;exitPerimeter=0;" edge="1" parent="EcYpv5kJXtkifqaUbWwn-31" source="u5yaHZLS7aTjfBpLh_kH-2">
          <mxGeometry width="50" height="50" relative="1" as="geometry">
            <mxPoint x="1287" y="310.28999999999996" as="sourcePoint" />
            <mxPoint x="1288" y="291" as="targetPoint" />
            <Array as="points" />
          </mxGeometry>
        </mxCell>
        <mxCell id="u5yaHZLS7aTjfBpLh_kH-9" value="Internet" style="ellipse;shape=cloud;whiteSpace=wrap;html=1;fillColor=#FFCC99;" vertex="1" parent="EcYpv5kJXtkifqaUbWwn-31">
          <mxGeometry x="1272" y="283" width="77" height="41" as="geometry" />
        </mxCell>
        <mxCell id="u5yaHZLS7aTjfBpLh_kH-19" value="Internet" style="ellipse;shape=cloud;whiteSpace=wrap;html=1;fillColor=#FFCC99;" vertex="1" parent="EcYpv5kJXtkifqaUbWwn-31">
          <mxGeometry x="1512" y="355" width="77" height="41" as="geometry" />
        </mxCell>
        <mxCell id="u5yaHZLS7aTjfBpLh_kH-10" value="Internet" style="ellipse;shape=cloud;whiteSpace=wrap;html=1;fillColor=#FFCC99;" vertex="1" parent="EcYpv5kJXtkifqaUbWwn-31">
          <mxGeometry x="1506" y="207" width="77" height="41" as="geometry" />
        </mxCell>
        <mxCell id="u5yaHZLS7aTjfBpLh_kH-13" value="Internet" style="ellipse;shape=cloud;whiteSpace=wrap;html=1;fillColor=#FFCC99;" vertex="1" parent="EcYpv5kJXtkifqaUbWwn-31">
          <mxGeometry x="1512" y="28" width="77" height="41" as="geometry" />
        </mxCell>
        <mxCell id="IJefrolB8mNHMplXJWJt-15" value="" style="endArrow=classic;html=1;rounded=0;strokeWidth=6;fillColor=#f8cecc;strokeColor=#006600;entryX=0.012;entryY=0.137;entryDx=0;entryDy=0;entryPerimeter=0;" edge="1" parent="EcYpv5kJXtkifqaUbWwn-31" target="0yRXkISWtA-7Xl8DejMg-9">
          <mxGeometry width="50" height="50" relative="1" as="geometry">
            <mxPoint x="1240" y="118" as="sourcePoint" />
            <mxPoint x="1434.51" y="128" as="targetPoint" />
            <Array as="points" />
          </mxGeometry>
        </mxCell>
        <mxCell id="IJefrolB8mNHMplXJWJt-22" value="&lt;div style=&quot;font-size: 14px;&quot;&gt;&lt;div style=&quot;font-size: 14px;&quot;&gt;IPV4&lt;/div&gt;&lt;div style=&quot;font-size: 14px;&quot;&gt;IPV6&lt;/div&gt;&lt;/div&gt;" style="rounded=0;whiteSpace=wrap;html=1;align=center;fillColor=none;strokeColor=none;fontSize=14;fontStyle=1" vertex="1" parent="EcYpv5kJXtkifqaUbWwn-31">
          <mxGeometry x="1309" y="58" width="71" height="39.39" as="geometry" />
        </mxCell>
        <mxCell id="EcYpv5kJXtkifqaUbWwn-84" value="" style="endArrow=classic;html=1;rounded=0;strokeWidth=6;fillColor=#f8cecc;strokeColor=#CC0000;entryX=0.043;entryY=0.56;entryDx=0;entryDy=0;entryPerimeter=0;dashed=1;dashPattern=1 1;align=center;verticalAlign=middle;fontFamily=Helvetica;fontSize=11;fontColor=default;labelBackgroundColor=default;" edge="1" parent="EcYpv5kJXtkifqaUbWwn-31">
          <mxGeometry width="50" height="50" relative="1" as="geometry">
            <mxPoint x="1288" y="189.29000000000002" as="sourcePoint" />
            <mxPoint x="1367.0099999999998" y="216.39999999999986" as="targetPoint" />
            <Array as="points" />
          </mxGeometry>
        </mxCell>
        <mxCell id="IJefrolB8mNHMplXJWJt-9" value="" style="image;aspect=fixed;html=1;points=[];align=center;fontSize=12;image=img/lib/azure2/networking/NAT.svg;" vertex="1" parent="EcYpv5kJXtkifqaUbWwn-31">
          <mxGeometry x="1371.29" y="198" width="40" height="40" as="geometry" />
        </mxCell>
        <mxCell id="EcYpv5kJXtkifqaUbWwn-86" value="" style="endArrow=classic;html=1;rounded=0;strokeWidth=6;fillColor=#f8cecc;strokeColor=#CC0000;dashed=1;dashPattern=1 1;" edge="1" parent="EcYpv5kJXtkifqaUbWwn-31">
          <mxGeometry width="50" height="50" relative="1" as="geometry">
            <mxPoint x="1409" y="225.00000000000003" as="sourcePoint" />
            <mxPoint x="1505" y="223" as="targetPoint" />
            <Array as="points" />
          </mxGeometry>
        </mxCell>
        <mxCell id="IJefrolB8mNHMplXJWJt-19" value="&lt;div style=&quot;font-size: 14px;&quot;&gt;&lt;div style=&quot;font-size: 14px;&quot;&gt;IPV4&lt;/div&gt;&lt;/div&gt;" style="rounded=0;whiteSpace=wrap;html=1;align=center;fillColor=none;strokeColor=none;fontSize=14;fontStyle=1" vertex="1" parent="EcYpv5kJXtkifqaUbWwn-31">
          <mxGeometry x="1407" y="224" width="71" height="39.39" as="geometry" />
        </mxCell>
        <mxCell id="u5yaHZLS7aTjfBpLh_kH-21" value="&lt;div style=&quot;font-size: 14px;&quot;&gt;&lt;div style=&quot;font-size: 14px;&quot;&gt;&lt;span style=&quot;&quot;&gt;&lt;b&gt;NAT Gateway&lt;/b&gt;&lt;/span&gt;&lt;/div&gt;&lt;/div&gt;" style="rounded=0;whiteSpace=wrap;html=1;align=center;fillColor=none;strokeColor=none;fontSize=14;fontStyle=0" vertex="1" parent="EcYpv5kJXtkifqaUbWwn-31">
          <mxGeometry x="1355.79" y="238.6" width="71" height="39.39" as="geometry" />
        </mxCell>
        <mxCell id="u5yaHZLS7aTjfBpLh_kH-22" value="&lt;div style=&quot;font-size: 14px;&quot;&gt;&lt;div style=&quot;font-size: 14px;&quot;&gt;IPV4&lt;/div&gt;&lt;div style=&quot;font-size: 14px;&quot;&gt;IPV6&lt;/div&gt;&lt;/div&gt;" style="rounded=0;whiteSpace=wrap;html=1;align=center;fillColor=none;strokeColor=none;fontSize=14;fontStyle=1" vertex="1" parent="EcYpv5kJXtkifqaUbWwn-31">
          <mxGeometry x="1309" y="358" width="71" height="39.39" as="geometry" />
        </mxCell>
        <mxCell id="0yRXkISWtA-7Xl8DejMg-9" value="" style="image;aspect=fixed;html=1;points=[];align=center;fontSize=15;image=img/lib/azure2/networking/Load_Balancers.svg;" vertex="1" parent="EcYpv5kJXtkifqaUbWwn-31">
          <mxGeometry x="1331.3258260869566" y="97.23601637107777" width="39.96538263975606" height="39.96538263975606" as="geometry" />
        </mxCell>
        <mxCell id="u5yaHZLS7aTjfBpLh_kH-20" value="" style="rounded=0;whiteSpace=wrap;html=1;strokeWidth=6;strokeColor=#FF9933;fillColor=none;" vertex="1" parent="EcYpv5kJXtkifqaUbWwn-31">
          <mxGeometry x="1164.61" y="154.49" width="119.39" height="43.51" as="geometry" />
        </mxCell>
        <mxCell id="EcYpv5kJXtkifqaUbWwn-33" value="DNS" style="" visible="0" parent="bJ2ua2rP26rWkI42sY4k-0" />
        <mxCell id="EcYpv5kJXtkifqaUbWwn-56" value="&lt;p style=&quot;line-height: 200%;&quot;&gt;&lt;font color=&quot;#1a1a1a&quot;&gt;&lt;span style=&quot;font-size: 16px;&quot;&gt;&lt;b&gt;DNS&lt;/b&gt;&lt;/span&gt;&lt;/font&gt;&lt;/p&gt;&lt;div&gt;&lt;br&gt;&lt;/div&gt;&lt;div&gt;&lt;span style=&quot;font-size: 16px; color: rgb(26, 26, 26); background-color: initial;&quot;&gt;&lt;br&gt;&lt;/span&gt;&lt;/div&gt;&lt;div style=&quot;line-height: 120%;&quot;&gt;&lt;span style=&quot;font-size: 16px; color: rgb(26, 26, 26); background-color: initial;&quot;&gt;1. Azure DNS (AAAA) records&lt;/span&gt;&lt;/div&gt;&lt;div style=&quot;line-height: 120%;&quot;&gt;&lt;span style=&quot;font-size: 16px; color: rgb(26, 26, 26); background-color: initial;&quot;&gt;&lt;br&gt;&lt;/span&gt;&lt;/div&gt;&lt;div style=&quot;line-height: 120%;&quot;&gt;&lt;font color=&quot;#1a1a1a&quot;&gt;&lt;span style=&quot;font-size: 16px;&quot;&gt;2. IPv6 auto-registration&lt;/span&gt;&lt;/font&gt;&lt;/div&gt;&lt;div style=&quot;line-height: 120%;&quot;&gt;&lt;font color=&quot;#1a1a1a&quot;&gt;&lt;span style=&quot;font-size: 16px;&quot;&gt;&lt;br&gt;&lt;/span&gt;&lt;/font&gt;&lt;/div&gt;&lt;div style=&quot;line-height: 120%;&quot;&gt;&lt;div&gt;&lt;span style=&quot;font-size: 16px; color: rgb(26, 26, 26); background-color: initial;&quot;&gt;3. DNS Private Resolver only supports IPv4&lt;/span&gt;&lt;/div&gt;&lt;div&gt;&lt;br&gt;&lt;/div&gt;&lt;div&gt;&lt;span style=&quot;font-size: 16px; color: rgb(26, 26, 26); background-color: initial;&quot;&gt;&lt;br&gt;&lt;/span&gt;&lt;/div&gt;&lt;/div&gt;&lt;p&gt;&lt;/p&gt;" style="rounded=1;whiteSpace=wrap;html=1;fontStyle=0;align=left;arcSize=0;verticalAlign=top;spacingLeft=10;spacingTop=5;strokeColor=#d1d1d1;fillColor=default;strokeWidth=1;fontSize=14;" vertex="1" parent="EcYpv5kJXtkifqaUbWwn-33">
          <mxGeometry x="161" y="42" width="362" height="734" as="geometry" />
        </mxCell>
        <UserObject label="DNS" link="data:action/json,{&quot;actions&quot;:[{&quot;toggle&quot;:{&quot;cells&quot;:[&quot;EcYpv5kJXtkifqaUbWwn-33&quot;]}}]}" id="SP6P7kpSR7Q2aPnXeVnb-10">
          <mxCell style="rounded=1;whiteSpace=wrap;html=1;fontStyle=0;strokeColor=#82b366;arcSize=0;fontSize=15;fillColor=#d5e8d4;" vertex="1" parent="EcYpv5kJXtkifqaUbWwn-33">
            <mxGeometry x="19" y="292" width="123.5" height="32" as="geometry" />
          </mxCell>
        </UserObject>
        <mxCell id="3dLLBou3huh4T94Coefv-16" value="&lt;div style=&quot;font-size: 15px;&quot;&gt;&lt;div style=&quot;font-size: 15px;&quot;&gt;Vnet Link&amp;nbsp;&lt;/div&gt;&lt;div style=&quot;font-size: 15px;&quot;&gt;Auto-registration&lt;/div&gt;&lt;/div&gt;" style="rounded=0;whiteSpace=wrap;html=1;align=center;fillColor=default;strokeColor=#FF9933;fontSize=15;rotation=5;strokeWidth=6;verticalAlign=middle;fontFamily=Helvetica;fontColor=#1A1A1A;fontStyle=1" vertex="1" parent="EcYpv5kJXtkifqaUbWwn-33">
          <mxGeometry x="1133" y="270.57000000000005" width="144" height="39.39" as="geometry" />
        </mxCell>
        <mxCell id="0yRXkISWtA-7Xl8DejMg-45" style="edgeStyle=none;rounded=0;orthogonalLoop=1;jettySize=auto;html=1;exitX=0.5;exitY=1;exitDx=0;exitDy=0;fontSize=15;" edge="1" parent="EcYpv5kJXtkifqaUbWwn-33">
          <mxGeometry relative="1" as="geometry">
            <mxPoint x="1377.567284642304" y="261.0003683492497" as="sourcePoint" />
            <mxPoint x="1377.567284642304" y="261.0003683492497" as="targetPoint" />
          </mxGeometry>
        </mxCell>
        <mxCell id="0yRXkISWtA-7Xl8DejMg-46" value="" style="image;aspect=fixed;html=1;points=[];align=center;fontSize=15;image=img/lib/azure2/networking/DNS_Zones.svg;" vertex="1" parent="EcYpv5kJXtkifqaUbWwn-33">
          <mxGeometry x="1396.0045933224264" y="262.99639836289214" width="39.96538263975606" height="39.96538263975606" as="geometry" />
        </mxCell>
        <mxCell id="0yRXkISWtA-7Xl8DejMg-18" value="" style="image;aspect=fixed;html=1;points=[];align=center;fontSize=15;image=img/lib/azure2/networking/DNS_Private_Resolver.svg;" vertex="1" parent="EcYpv5kJXtkifqaUbWwn-33">
          <mxGeometry x="1351.0611476727372" y="364.99815825375157" width="47.87852840242776" height="42.24911879059926" as="geometry" />
        </mxCell>
        <mxCell id="0yRXkISWtA-7Xl8DejMg-19" value="&lt;div style=&quot;font-size: 15px;&quot;&gt;&lt;div style=&quot;font-size: 15px;&quot;&gt;DNS Resolver&lt;/div&gt;&lt;div style=&quot;font-size: 15px;&quot;&gt;Inbound&lt;/div&gt;&lt;div style=&quot;font-size: 15px;&quot;&gt;10.11.8.4&lt;/div&gt;&lt;/div&gt;" style="rounded=0;whiteSpace=wrap;html=1;align=center;fillColor=none;strokeColor=none;fontSize=15;" vertex="1" parent="EcYpv5kJXtkifqaUbWwn-33">
          <mxGeometry x="1323.000411873951" y="419.00999999999993" width="104" height="39.39" as="geometry" />
        </mxCell>
        <mxCell id="3dLLBou3huh4T94Coefv-3" value="&lt;div style=&quot;font-size: 15px;&quot;&gt;&lt;div style=&quot;font-size: 15px;&quot;&gt;&lt;b&gt;&lt;font color=&quot;#1a1a1a&quot;&gt;AAA Records&lt;/font&gt;&lt;/b&gt;&lt;/div&gt;&lt;/div&gt;" style="rounded=0;whiteSpace=wrap;html=1;align=center;fontSize=15;strokeColor=#FF9933;strokeWidth=6;fontColor=#CC6600;" vertex="1" parent="EcYpv5kJXtkifqaUbWwn-33">
          <mxGeometry x="1446" y="273" width="109" height="33" as="geometry" />
        </mxCell>
        <mxCell id="3dLLBou3huh4T94Coefv-1" value="&lt;div style=&quot;font-size: 15px;&quot;&gt;&lt;div style=&quot;font-size: 15px;&quot;&gt;Private DNS Zone&lt;/div&gt;&lt;/div&gt;" style="rounded=0;whiteSpace=wrap;html=1;align=center;fillColor=none;strokeColor=none;fontSize=15;" vertex="1" parent="EcYpv5kJXtkifqaUbWwn-33">
          <mxGeometry x="1428.5" y="237.00000000000006" width="144" height="39.39" as="geometry" />
        </mxCell>
        <mxCell id="3dLLBou3huh4T94Coefv-8" value="" style="endArrow=none;dashed=1;html=1;dashPattern=1 3;strokeWidth=2;rounded=0;entryX=0.514;entryY=0.871;entryDx=0;entryDy=0;entryPerimeter=0;exitX=0.932;exitY=0.016;exitDx=0;exitDy=0;exitPerimeter=0;" edge="1" parent="EcYpv5kJXtkifqaUbWwn-33" source="0yRXkISWtA-7Xl8DejMg-0" target="0yRXkISWtA-7Xl8DejMg-46">
          <mxGeometry width="50" height="50" relative="1" as="geometry">
            <mxPoint x="1498" y="390.25" as="sourcePoint" />
            <mxPoint x="1548" y="340.25" as="targetPoint" />
          </mxGeometry>
        </mxCell>
        <mxCell id="3dLLBou3huh4T94Coefv-9" value="" style="endArrow=none;dashed=1;html=1;dashPattern=1 3;strokeWidth=2;rounded=0;exitX=0.572;exitY=0.047;exitDx=0;exitDy=0;exitPerimeter=0;entryX=0.925;entryY=0.985;entryDx=0;entryDy=0;entryPerimeter=0;" edge="1" parent="EcYpv5kJXtkifqaUbWwn-33" source="0yRXkISWtA-7Xl8DejMg-46" target="0yRXkISWtA-7Xl8DejMg-1">
          <mxGeometry width="50" height="50" relative="1" as="geometry">
            <mxPoint x="1461" y="193" as="sourcePoint" />
            <mxPoint x="1511" y="143" as="targetPoint" />
          </mxGeometry>
        </mxCell>
        <mxCell id="3dLLBou3huh4T94Coefv-15" value="&lt;div style=&quot;font-size: 15px;&quot;&gt;&lt;div style=&quot;font-size: 15px;&quot;&gt;&lt;br&gt;&lt;/div&gt;&lt;/div&gt;" style="rounded=0;whiteSpace=wrap;html=1;align=center;fontSize=15;strokeColor=#FF9933;strokeWidth=6;fontColor=#CC6600;fillColor=none;" vertex="1" parent="EcYpv5kJXtkifqaUbWwn-33">
          <mxGeometry x="1336" y="446" width="78" height="22" as="geometry" />
        </mxCell>
        <mxCell id="3dLLBou3huh4T94Coefv-10" value="" style="endArrow=none;dashed=1;html=1;dashPattern=1 3;strokeWidth=2;rounded=0;entryX=1;entryY=1;entryDx=0;entryDy=0;exitX=0.249;exitY=0.141;exitDx=0;exitDy=0;exitPerimeter=0;" edge="1" parent="EcYpv5kJXtkifqaUbWwn-33" source="0yRXkISWtA-7Xl8DejMg-46" target="0yRXkISWtA-7Xl8DejMg-38">
          <mxGeometry width="50" height="50" relative="1" as="geometry">
            <mxPoint x="1400" y="263" as="sourcePoint" />
            <mxPoint x="1256.19" y="215.54" as="targetPoint" />
          </mxGeometry>
        </mxCell>
        <mxCell id="3dLLBou3huh4T94Coefv-11" value="" style="endArrow=none;dashed=1;html=1;dashPattern=1 3;strokeWidth=2;rounded=0;entryX=0.75;entryY=1;entryDx=0;entryDy=0;exitX=-0.016;exitY=0.554;exitDx=0;exitDy=0;exitPerimeter=0;" edge="1" parent="EcYpv5kJXtkifqaUbWwn-33" source="0yRXkISWtA-7Xl8DejMg-46" target="0yRXkISWtA-7Xl8DejMg-2">
          <mxGeometry width="50" height="50" relative="1" as="geometry">
            <mxPoint x="1394" y="285" as="sourcePoint" />
            <mxPoint x="1124" y="204" as="targetPoint" />
          </mxGeometry>
        </mxCell>
        <mxCell id="mJIhDMjIjZcE_hauMBUq-0" value="Load Balancer" style="" parent="bJ2ua2rP26rWkI42sY4k-0" />
        <mxCell id="EcYpv5kJXtkifqaUbWwn-65" value="&lt;p style=&quot;line-height: 200%;&quot;&gt;&lt;font color=&quot;#1a1a1a&quot;&gt;&lt;span style=&quot;font-size: 16px;&quot;&gt;&lt;b&gt;Load Balancer&lt;/b&gt;&lt;/span&gt;&lt;/font&gt;&lt;/p&gt;&lt;div&gt;&lt;span style=&quot;font-size: 16px; color: rgb(26, 26, 26); background-color: initial;&quot;&gt;&lt;br&gt;&lt;/span&gt;&lt;/div&gt;&lt;div&gt;&lt;span style=&quot;font-size: 16px; color: rgb(26, 26, 26); background-color: initial;&quot;&gt;1.&amp;nbsp;&lt;/span&gt;&lt;span style=&quot;color: rgb(26, 26, 26); font-size: 16px; background-color: initial;&quot;&gt;Dual-stack supported on public LB&lt;/span&gt;&lt;/div&gt;&lt;div&gt;&lt;span style=&quot;font-size: 16px; color: rgb(26, 26, 26); background-color: initial;&quot;&gt;&lt;br&gt;&lt;/span&gt;&lt;/div&gt;&lt;div&gt;&lt;div style=&quot;line-height: 26.6px;&quot;&gt;&lt;span style=&quot;font-size: 16px; color: rgb(26, 26, 26); background-color: initial;&quot;&gt;2.&amp;nbsp;&lt;/span&gt;&lt;span style=&quot;color: rgb(26, 26, 26); font-size: 16px; background-color: initial;&quot;&gt;Dual-stack supported on private LB&lt;/span&gt;&lt;/div&gt;&lt;/div&gt;&lt;div&gt;&lt;span style=&quot;font-size: 16px; color: rgb(26, 26, 26); background-color: initial;&quot;&gt;&lt;br&gt;&lt;/span&gt;&lt;/div&gt;&lt;div&gt;&lt;span style=&quot;font-size: 16px; color: rgb(26, 26, 26); background-color: initial;&quot;&gt;3.&amp;nbsp;&lt;/span&gt;&lt;span style=&quot;background-color: initial; font-size: 16px;&quot;&gt;IPv6 health probe -&amp;nbsp;&lt;/span&gt;&lt;span style=&quot;background-color: initial; font-size: 16px;&quot;&gt;fe80::1234:5678:9abc&lt;/span&gt;&lt;/div&gt;&lt;div&gt;&lt;span style=&quot;background-color: initial; font-size: 16px;&quot;&gt;&lt;br&gt;&lt;/span&gt;&lt;/div&gt;&lt;div&gt;&lt;span style=&quot;background-color: initial; font-size: 16px;&quot;&gt;4.&amp;nbsp;&lt;/span&gt;&lt;span style=&quot;font-size: 16px; background-color: initial;&quot;&gt;Multiple IPv6 frontends (public LB)&lt;/span&gt;&lt;/div&gt;&lt;div style=&quot;line-height: 22.4px;&quot;&gt;&lt;span style=&quot;background-color: initial; font-size: 16px;&quot;&gt;&amp;nbsp;&lt;/span&gt;&lt;/div&gt;&lt;div style=&quot;line-height: 22.4px;&quot;&gt;&lt;span style=&quot;background-color: initial; font-size: 16px;&quot;&gt;5.&amp;nbsp;&lt;/span&gt;&lt;span style=&quot;background-color: initial; font-size: 16px;&quot;&gt;Outbound rules for SNAT (public LB)&lt;/span&gt;&lt;/div&gt;&lt;div style=&quot;line-height: 22.4px;&quot;&gt;&lt;span style=&quot;background-color: initial; font-size: 16px;&quot;&gt;&amp;nbsp;&lt;/span&gt;&lt;/div&gt;&lt;div style=&quot;line-height: 22.4px;&quot;&gt;&lt;span style=&quot;background-color: initial; font-size: 16px;&quot;&gt;6. Floating IP for dual-stack (public LB)&lt;/span&gt;&lt;/div&gt;&lt;p&gt;&lt;/p&gt;" style="rounded=1;whiteSpace=wrap;html=1;fontStyle=0;align=left;arcSize=0;verticalAlign=top;spacingLeft=10;spacingTop=5;strokeColor=#d1d1d1;fillColor=default;strokeWidth=1;fontSize=14;" vertex="1" parent="mJIhDMjIjZcE_hauMBUq-0">
          <mxGeometry x="161" y="41.83" width="362" height="734" as="geometry" />
        </mxCell>
        <UserObject label="Load Balancer" link="data:action/json,{&quot;actions&quot;:[{&quot;toggle&quot;:{&quot;cells&quot;:[&quot;mJIhDMjIjZcE_hauMBUq-0&quot;]}}]}" id="SP6P7kpSR7Q2aPnXeVnb-8">
          <mxCell style="rounded=1;whiteSpace=wrap;html=1;fontStyle=0;strokeColor=#82b366;arcSize=0;fontSize=15;fillColor=#d5e8d4;" vertex="1" parent="mJIhDMjIjZcE_hauMBUq-0">
            <mxGeometry x="19" y="229" width="123.5" height="32" as="geometry" />
          </mxCell>
        </UserObject>
        <mxCell id="EcYpv5kJXtkifqaUbWwn-83" value="" style="image;aspect=fixed;html=1;points=[];align=center;fontSize=15;image=img/lib/azure2/networking/Load_Balancers.svg;" vertex="1" parent="mJIhDMjIjZcE_hauMBUq-0">
          <mxGeometry x="1331.3258260869566" y="97.23601637107777" width="39.96538263975606" height="39.96538263975606" as="geometry" />
        </mxCell>
        <mxCell id="0yRXkISWtA-7Xl8DejMg-10" value="&lt;div style=&quot;font-size: 15px;&quot;&gt;&lt;div style=&quot;font-size: 15px;&quot;&gt;&lt;b style=&quot;font-size: 15px;&quot;&gt;Azure LB&lt;/b&gt;&lt;/div&gt;&lt;div style=&quot;font-size: 15px;&quot;&gt;10.3.5.0/24&lt;/div&gt;&lt;div style=&quot;font-size: 15px;&quot;&gt;&lt;span style=&quot;background-color: rgb(255, 229, 153);&quot;&gt;&lt;b&gt;fd00:db8:3:5::/64&lt;/b&gt;&lt;/span&gt;&lt;/div&gt;&lt;/div&gt;" style="rounded=0;whiteSpace=wrap;html=1;align=center;strokeColor=none;fillColor=none;fontSize=15;" vertex="1" parent="mJIhDMjIjZcE_hauMBUq-0">
          <mxGeometry x="1293.6441304347825" y="137.05320600272853" width="115.32882608695651" height="51.38472032742155" as="geometry" />
        </mxCell>
        <mxCell id="0yRXkISWtA-7Xl8DejMg-11" value="&lt;div style=&quot;font-size: 15px;&quot;&gt;&lt;div style=&quot;font-size: 15px;&quot;&gt;FrontEnd&lt;/div&gt;&lt;div style=&quot;font-size: 15px;&quot;&gt;4.209.46.22&lt;/div&gt;&lt;div style=&quot;font-size: 15px;&quot;&gt;2603:1020:2:4::26&lt;/div&gt;&lt;/div&gt;" style="rounded=0;whiteSpace=wrap;html=1;align=center;fillColor=#FFE599;strokeColor=#36393d;fontSize=15;" vertex="1" parent="mJIhDMjIjZcE_hauMBUq-0">
          <mxGeometry x="1374.57" y="68" width="131.32" height="63.62" as="geometry" />
        </mxCell>
        <mxCell id="sttld32AwAFzGpgK8lIf-1" value="" style="endArrow=classic;html=1;rounded=0;entryX=1;entryY=0.5;entryDx=0;entryDy=0;strokeWidth=2;" edge="1" parent="mJIhDMjIjZcE_hauMBUq-0">
          <mxGeometry width="50" height="50" relative="1" as="geometry">
            <mxPoint x="1566" y="101" as="sourcePoint" />
            <mxPoint x="1513.8899999999994" y="100.80999999999995" as="targetPoint" />
          </mxGeometry>
        </mxCell>
        <mxCell id="1H29h8VO7i356PQr0Bs2-3" value="" style="endArrow=classic;html=1;rounded=0;" edge="1" parent="mJIhDMjIjZcE_hauMBUq-0">
          <mxGeometry width="50" height="50" relative="1" as="geometry">
            <mxPoint x="1329.27" y="119.93" as="sourcePoint" />
            <mxPoint x="1244.27" y="138.13000000000005" as="targetPoint" />
          </mxGeometry>
        </mxCell>
        <mxCell id="1H29h8VO7i356PQr0Bs2-4" value="&lt;div style=&quot;font-size: 15px;&quot;&gt;&lt;div style=&quot;font-size: 15px;&quot;&gt;10.3.0.5&lt;/div&gt;&lt;div style=&quot;font-size: 15px;&quot;&gt;fd00:db8:3::/64&lt;/div&gt;&lt;/div&gt;" style="rounded=0;whiteSpace=wrap;html=1;align=center;fontSize=15;verticalAlign=middle;fontFamily=Helvetica;fillColor=#FFE599;" vertex="1" parent="mJIhDMjIjZcE_hauMBUq-0">
          <mxGeometry x="1164.61" y="156.46999999999997" width="117.39" height="39.97" as="geometry" />
        </mxCell>
        <mxCell id="1H29h8VO7i356PQr0Bs2-2" value="" style="image;aspect=fixed;html=1;points=[];align=center;fontSize=15;image=img/lib/azure2/networking/Load_Balancers.svg;" vertex="1" parent="mJIhDMjIjZcE_hauMBUq-0">
          <mxGeometry x="1331.3258260869566" y="97.23601637107777" width="39.96538263975606" height="39.96538263975606" as="geometry" />
        </mxCell>
        <mxCell id="7-8NA--VRh3qNjhgh93t-1" value="Routing + NSG" style="" visible="0" parent="bJ2ua2rP26rWkI42sY4k-0" />
        <mxCell id="EcYpv5kJXtkifqaUbWwn-7" value="&lt;p style=&quot;line-height: 200%;&quot;&gt;&lt;b style=&quot;color: rgb(26, 26, 26); font-size: 16px;&quot;&gt;Network Security Group (NSG)&lt;br&gt;User-Defined Routes (UDR)&lt;/b&gt;&lt;br&gt;&lt;/p&gt;&lt;div&gt;&lt;br&gt;&lt;/div&gt;&lt;div style=&quot;line-height: 120%;&quot;&gt;&lt;div style=&quot;line-height: 120%;&quot;&gt;&lt;div style=&quot;line-height: 120%;&quot;&gt;&lt;span style=&quot;font-size: 16px; color: rgb(26, 26, 26); background-color: initial;&quot;&gt;&lt;br&gt;&lt;/span&gt;&lt;/div&gt;&lt;/div&gt;&lt;div style=&quot;line-height: 120%;&quot;&gt;&lt;span style=&quot;color: rgb(26, 26, 26); font-size: 16px;&quot;&gt;1. Configure IPv6 NSG and UDR same as IPv4&lt;/span&gt;&lt;br&gt;&lt;/div&gt;&lt;div style=&quot;line-height: 120%;&quot;&gt;&lt;span style=&quot;color: rgb(26, 26, 26); font-size: 16px;&quot;&gt;&lt;br&gt;&lt;/span&gt;&lt;/div&gt;&lt;div style=&quot;line-height: 120%;&quot;&gt;&lt;div style=&quot;line-height: 16.8px;&quot;&gt;&lt;span style=&quot;font-size: 16px; color: rgb(26, 26, 26); background-color: initial;&quot;&gt;2. Same NSG rule cannot have IPv4 and IPv6&lt;/span&gt;&lt;/div&gt;&lt;div style=&quot;line-height: 16.8px;&quot;&gt;&lt;span style=&quot;font-size: 16px; color: rgb(26, 26, 26); background-color: initial;&quot;&gt;&lt;br&gt;&lt;/span&gt;&lt;/div&gt;&lt;div style=&quot;line-height: 16.8px;&quot;&gt;&lt;div style=&quot;line-height: 16.8px;&quot;&gt;&lt;span style=&quot;font-size: 16px; color: rgb(26, 26, 26); background-color: initial;&quot;&gt;3. Same UDR cannot have IPv4 and IPv6&lt;/span&gt;&lt;/div&gt;&lt;/div&gt;&lt;/div&gt;&lt;/div&gt;&lt;p&gt;&lt;/p&gt;" style="rounded=1;whiteSpace=wrap;html=1;fontStyle=0;align=left;arcSize=0;verticalAlign=top;spacingLeft=10;spacingTop=5;strokeColor=#d1d1d1;fillColor=default;strokeWidth=1;fontSize=14;" vertex="1" parent="7-8NA--VRh3qNjhgh93t-1">
          <mxGeometry x="161" y="42" width="362" height="734" as="geometry" />
        </mxCell>
        <mxCell id="IJefrolB8mNHMplXJWJt-36" value="" style="image;aspect=fixed;html=1;points=[];align=center;fontSize=12;image=img/lib/azure2/networking/Network_Security_Groups.svg;" vertex="1" parent="7-8NA--VRh3qNjhgh93t-1">
          <mxGeometry x="1018.0000000000001" y="440.99999999999994" width="33.76" height="41" as="geometry" />
        </mxCell>
        <mxCell id="IJefrolB8mNHMplXJWJt-37" value="" style="image;aspect=fixed;html=1;points=[];align=center;fontSize=12;image=img/lib/azure2/networking/Route_Tables.svg;" vertex="1" parent="7-8NA--VRh3qNjhgh93t-1">
          <mxGeometry x="968" y="436" width="45.74" height="44.31" as="geometry" />
        </mxCell>
        <mxCell id="IJefrolB8mNHMplXJWJt-46" value="" style="rounded=0;whiteSpace=wrap;html=1;strokeWidth=6;strokeColor=#FF9933;fillColor=none;" vertex="1" parent="7-8NA--VRh3qNjhgh93t-1">
          <mxGeometry x="1157" y="436" width="103" height="50" as="geometry" />
        </mxCell>
        <mxCell id="IJefrolB8mNHMplXJWJt-33" value="" style="image;aspect=fixed;html=1;points=[];align=center;fontSize=12;image=img/lib/azure2/networking/Route_Tables.svg;" vertex="1" parent="7-8NA--VRh3qNjhgh93t-1">
          <mxGeometry x="1005" y="580" width="45.74" height="44.31" as="geometry" />
        </mxCell>
        <mxCell id="IJefrolB8mNHMplXJWJt-42" value="" style="rounded=0;whiteSpace=wrap;html=1;strokeWidth=6;strokeColor=#FF9933;fillColor=none;" vertex="1" parent="7-8NA--VRh3qNjhgh93t-1">
          <mxGeometry x="671" y="145.49" width="218" height="60" as="geometry" />
        </mxCell>
        <mxCell id="IJefrolB8mNHMplXJWJt-38" value="" style="image;aspect=fixed;html=1;points=[];align=center;fontSize=12;image=img/lib/azure2/networking/Route_Tables.svg;" vertex="1" parent="7-8NA--VRh3qNjhgh93t-1">
          <mxGeometry x="681" y="153.33999999999997" width="45.74" height="44.31" as="geometry" />
        </mxCell>
        <mxCell id="IJefrolB8mNHMplXJWJt-30" value="" style="image;aspect=fixed;html=1;points=[];align=center;fontSize=12;image=img/lib/azure2/networking/Network_Security_Groups.svg;" vertex="1" parent="7-8NA--VRh3qNjhgh93t-1">
          <mxGeometry x="843" y="158.99999999999997" width="33.76" height="41" as="geometry" />
        </mxCell>
        <mxCell id="IJefrolB8mNHMplXJWJt-56" value="" style="rounded=0;whiteSpace=wrap;html=1;strokeWidth=6;strokeColor=#FF9933;fillColor=none;" vertex="1" parent="7-8NA--VRh3qNjhgh93t-1">
          <mxGeometry x="998" y="572" width="61.47" height="61.85" as="geometry" />
        </mxCell>
        <mxCell id="EcYpv5kJXtkifqaUbWwn-30" value="" style="rounded=0;whiteSpace=wrap;html=1;strokeWidth=6;strokeColor=#FF9933;fillColor=none;" vertex="1" parent="7-8NA--VRh3qNjhgh93t-1">
          <mxGeometry x="960" y="436" width="105" height="50" as="geometry" />
        </mxCell>
        <mxCell id="EcYpv5kJXtkifqaUbWwn-29" value="" style="image;aspect=fixed;html=1;points=[];align=center;fontSize=12;image=img/lib/azure2/networking/Route_Tables.svg;" vertex="1" parent="7-8NA--VRh3qNjhgh93t-1">
          <mxGeometry x="1166" y="436" width="45.74" height="44.31" as="geometry" />
        </mxCell>
        <mxCell id="EcYpv5kJXtkifqaUbWwn-28" value="" style="image;aspect=fixed;html=1;points=[];align=center;fontSize=12;image=img/lib/azure2/networking/Network_Security_Groups.svg;" vertex="1" parent="7-8NA--VRh3qNjhgh93t-1">
          <mxGeometry x="1216" y="440.99999999999994" width="33.76" height="41" as="geometry" />
        </mxCell>
        <UserObject label="Routing + NSG" link="data:action/json,{&quot;actions&quot;:[{&quot;toggle&quot;:{&quot;cells&quot;:[&quot;7-8NA--VRh3qNjhgh93t-1&quot;]}}]}" id="SP6P7kpSR7Q2aPnXeVnb-7">
          <mxCell style="rounded=1;whiteSpace=wrap;html=1;fontStyle=0;strokeColor=#82b366;arcSize=0;fontSize=15;fillColor=#d5e8d4;" vertex="1" parent="7-8NA--VRh3qNjhgh93t-1">
            <mxGeometry x="19" y="167" width="123.5" height="32" as="geometry" />
          </mxCell>
        </UserObject>
        <mxCell id="TxWsSp8CMvpaBGWYidcT-0" value="Vnet Gateways" style="" visible="0" parent="bJ2ua2rP26rWkI42sY4k-0" />
        <mxCell id="EcYpv5kJXtkifqaUbWwn-6" value="&lt;p style=&quot;line-height: 200%;&quot;&gt;&lt;font color=&quot;#1a1a1a&quot;&gt;&lt;span style=&quot;font-size: 16px;&quot;&gt;&lt;b&gt;Virtual Network Gateway&lt;/b&gt;&lt;/span&gt;&lt;/font&gt;&lt;/p&gt;&lt;div&gt;&lt;span style=&quot;font-size: 16px; color: rgb(26, 26, 26); background-color: initial;&quot;&gt;&lt;br&gt;&lt;/span&gt;&lt;/div&gt;&lt;div style=&quot;line-height: 120%;&quot;&gt;&lt;font color=&quot;#1a1a1a&quot;&gt;&lt;span style=&quot;font-size: 16px;&quot;&gt;1. Dual stack supported on GatewaySubnet&lt;/span&gt;&lt;/font&gt;&lt;/div&gt;&lt;div style=&quot;line-height: 120%;&quot;&gt;&lt;font color=&quot;#1a1a1a&quot;&gt;&lt;span style=&quot;font-size: 16px;&quot;&gt;&lt;br&gt;&lt;/span&gt;&lt;/font&gt;&lt;/div&gt;&lt;div style=&quot;line-height: 120%;&quot;&gt;&lt;span style=&quot;background-color: initial; color: rgb(26, 26, 26); font-size: 16px;&quot;&gt;2. IPv6 only works for Express Route for now&lt;/span&gt;&lt;/div&gt;&lt;div style=&quot;line-height: 120%;&quot;&gt;&lt;span style=&quot;background-color: initial; color: rgb(26, 26, 26); font-size: 16px;&quot;&gt;&lt;br&gt;&lt;/span&gt;&lt;/div&gt;&lt;div style=&quot;line-height: 120%;&quot;&gt;&lt;span style=&quot;background-color: initial; color: rgb(26, 26, 26); font-size: 16px;&quot;&gt;3.&amp;nbsp; VPN gateway is still IPv4&lt;/span&gt;&lt;/div&gt;&lt;div style=&quot;line-height: 120%;&quot;&gt;&lt;ul&gt;&lt;li&gt;&lt;span style=&quot;background-color: initial; color: rgb(26, 26, 26); font-size: 16px;&quot;&gt;Workaround -&amp;nbsp; NVA in Vnet to establish IPv6 (inner tunnel) over IPv4 outer tunnel.&lt;/span&gt;&lt;/li&gt;&lt;/ul&gt;&lt;/div&gt;&lt;p&gt;&lt;/p&gt;" style="rounded=1;whiteSpace=wrap;html=1;fontStyle=0;align=left;arcSize=0;verticalAlign=top;spacingLeft=10;spacingTop=5;strokeColor=#d1d1d1;fillColor=default;strokeWidth=1;fontSize=14;" vertex="1" parent="TxWsSp8CMvpaBGWYidcT-0">
          <mxGeometry x="161" y="42" width="362" height="734" as="geometry" />
        </mxCell>
        <mxCell id="EcYpv5kJXtkifqaUbWwn-36" value="" style="shape=image;html=1;verticalAlign=top;verticalLabelPosition=bottom;labelBackgroundColor=#ffffff;imageAspect=0;aspect=fixed;image=https://cdn3.iconfinder.com/data/icons/flat-actions-icons-9/792/Tick_Mark_Dark-128.png" vertex="1" parent="TxWsSp8CMvpaBGWYidcT-0">
          <mxGeometry x="1107" y="462" width="49" height="49" as="geometry" />
        </mxCell>
        <mxCell id="EcYpv5kJXtkifqaUbWwn-37" value="" style="shape=image;html=1;verticalAlign=top;verticalLabelPosition=bottom;labelBackgroundColor=#ffffff;imageAspect=0;aspect=fixed;image=https://cdn3.iconfinder.com/data/icons/flat-actions-icons-9/792/Close_Icon_Dark-128.png" vertex="1" parent="TxWsSp8CMvpaBGWYidcT-0">
          <mxGeometry x="887" y="462" width="49" height="49" as="geometry" />
        </mxCell>
        <mxCell id="EcYpv5kJXtkifqaUbWwn-38" value="&lt;div style=&quot;font-size: 15px;&quot;&gt;&lt;div style=&quot;font-size: 15px;&quot;&gt;IPv6&lt;/div&gt;&lt;/div&gt;" style="rounded=0;whiteSpace=wrap;html=1;align=center;fillColor=none;strokeColor=none;fontSize=15;" vertex="1" parent="TxWsSp8CMvpaBGWYidcT-0">
          <mxGeometry x="1142" y="466.805" width="62" height="39.39" as="geometry" />
        </mxCell>
        <mxCell id="EcYpv5kJXtkifqaUbWwn-39" value="&lt;div style=&quot;font-size: 15px;&quot;&gt;&lt;div style=&quot;font-size: 15px;&quot;&gt;IPv6&lt;/div&gt;&lt;/div&gt;" style="rounded=0;whiteSpace=wrap;html=1;align=center;fillColor=none;strokeColor=none;fontSize=15;" vertex="1" parent="TxWsSp8CMvpaBGWYidcT-0">
          <mxGeometry x="845" y="466.805" width="62" height="39.39" as="geometry" />
        </mxCell>
        <mxCell id="EcYpv5kJXtkifqaUbWwn-26" value="" style="rounded=0;whiteSpace=wrap;html=1;strokeWidth=6;strokeColor=#FF9933;fillColor=none;" vertex="1" parent="TxWsSp8CMvpaBGWYidcT-0">
          <mxGeometry x="829" y="458" width="112" height="101" as="geometry" />
        </mxCell>
        <UserObject label="Vnet Gateway" link="data:action/json,{&quot;actions&quot;:[{&quot;toggle&quot;:{&quot;cells&quot;:[&quot;TxWsSp8CMvpaBGWYidcT-0&quot;]}}]}" id="SP6P7kpSR7Q2aPnXeVnb-6">
          <mxCell style="rounded=1;whiteSpace=wrap;html=1;fontStyle=0;strokeColor=#82b366;arcSize=0;fontSize=15;align=center;verticalAlign=middle;fontFamily=Helvetica;fillColor=#d5e8d4;" vertex="1" parent="TxWsSp8CMvpaBGWYidcT-0">
            <mxGeometry x="19" y="104" width="123.5" height="32" as="geometry" />
          </mxCell>
        </UserObject>
        <mxCell id="4dqZTrc1SoPVpxpCQpWB-0" value="Virtual Machines" style="locked=1;" visible="0" parent="bJ2ua2rP26rWkI42sY4k-0" />
        <mxCell id="EcYpv5kJXtkifqaUbWwn-54" value="&lt;p style=&quot;line-height: 200%;&quot;&gt;&lt;font color=&quot;#1a1a1a&quot;&gt;&lt;span style=&quot;font-size: 16px;&quot;&gt;&lt;b&gt;Virtual Machines&lt;/b&gt;&lt;/span&gt;&lt;/font&gt;&lt;/p&gt;&lt;div&gt;&lt;br&gt;&lt;/div&gt;&lt;div style=&quot;line-height: 120%;&quot;&gt;&lt;div style=&quot;line-height: 120%;&quot;&gt;&lt;span style=&quot;font-size: 16px; color: rgb(26, 26, 26); background-color: initial;&quot;&gt;1.&amp;nbsp;&lt;/span&gt;&lt;span style=&quot;color: rgb(26, 26, 26); font-size: 16px; background-color: initial;&quot;&gt;Virtual machine (Windows, Linux)&lt;/span&gt;&lt;/div&gt;&lt;div style=&quot;line-height: 120%;&quot;&gt;&lt;br&gt;&lt;/div&gt;&lt;div style=&quot;line-height: 120%;&quot;&gt;&lt;span style=&quot;font-size: 16px; color: rgb(26, 26, 26); background-color: initial;&quot;&gt;2.&amp;nbsp;&lt;/span&gt;&lt;span style=&quot;color: rgb(26, 26, 26); font-size: 16px; background-color: initial;&quot;&gt;Instance level public IP&lt;/span&gt;&lt;/div&gt;&lt;div style=&quot;line-height: 120%;&quot;&gt;&lt;span style=&quot;font-size: 16px; color: rgb(26, 26, 26); background-color: initial;&quot;&gt;&lt;br&gt;&lt;/span&gt;&lt;/div&gt;&lt;div style=&quot;line-height: 120%;&quot;&gt;&lt;span style=&quot;font-size: 16px; color: rgb(26, 26, 26); background-color: initial;&quot;&gt;3.&amp;nbsp;&lt;/span&gt;&lt;span style=&quot;color: rgb(26, 26, 26); font-size: 16px; background-color: initial;&quot;&gt;Add IPv6 to existing NIC&lt;/span&gt;&lt;/div&gt;&lt;div style=&quot;line-height: 120%;&quot;&gt;&lt;span style=&quot;color: rgb(26, 26, 26); font-size: 16px; background-color: initial;&quot;&gt;&lt;br&gt;&lt;/span&gt;&lt;/div&gt;&lt;div style=&quot;line-height: 120%;&quot;&gt;&lt;span style=&quot;color: rgb(26, 26, 26); font-size: 16px; background-color: initial;&quot;&gt;4.&amp;nbsp;&lt;/span&gt;&lt;span style=&quot;background-color: initial; color: rgb(26, 26, 26); font-size: 16px;&quot;&gt;Subnets (must be exactly /64)&lt;/span&gt;&lt;span style=&quot;background-color: initial; color: rgb(26, 26, 26); font-size: 16px;&quot;&gt;&amp;nbsp;&lt;/span&gt;&lt;/div&gt;&lt;div style=&quot;line-height: 120%;&quot;&gt;&lt;span style=&quot;background-color: initial; color: rgb(26, 26, 26); font-size: 16px;&quot;&gt;&lt;br&gt;&lt;/span&gt;&lt;/div&gt;&lt;div style=&quot;line-height: 120%;&quot;&gt;&lt;span style=&quot;background-color: initial; color: rgb(26, 26, 26); font-size: 16px;&quot;&gt;5. No Private endpoint support&lt;/span&gt;&lt;/div&gt;&lt;div style=&quot;line-height: 120%;&quot;&gt;&lt;br&gt;&lt;/div&gt;&lt;div style=&quot;line-height: 120%;&quot;&gt;&lt;span style=&quot;background-color: initial; color: rgb(26, 26, 26); font-size: 16px;&quot;&gt;6.&amp;nbsp;&lt;/span&gt;&lt;/div&gt;&lt;div style=&quot;line-height: 120%;&quot;&gt;&lt;br&gt;&lt;/div&gt;&lt;div&gt;&lt;span style=&quot;font-size: 16px; color: rgb(26, 26, 26); background-color: initial;&quot;&gt;&lt;br&gt;&lt;/span&gt;&lt;/div&gt;&lt;/div&gt;&lt;p&gt;&lt;/p&gt;" style="rounded=1;whiteSpace=wrap;html=1;fontStyle=0;align=left;arcSize=0;verticalAlign=top;spacingLeft=10;spacingTop=5;strokeColor=#d1d1d1;fillColor=default;strokeWidth=1;fontSize=14;" vertex="1" parent="4dqZTrc1SoPVpxpCQpWB-0">
          <mxGeometry x="161" y="41.5" width="362" height="734" as="geometry" />
        </mxCell>
        <mxCell id="EcYpv5kJXtkifqaUbWwn-22" value="" style="rounded=0;whiteSpace=wrap;html=1;strokeWidth=6;strokeColor=#FF9933;fillColor=none;" vertex="1" parent="4dqZTrc1SoPVpxpCQpWB-0">
          <mxGeometry x="732" y="155.49" width="116" height="43.51" as="geometry" />
        </mxCell>
        <mxCell id="EcYpv5kJXtkifqaUbWwn-23" value="" style="rounded=0;whiteSpace=wrap;html=1;strokeWidth=6;strokeColor=#FF9933;fillColor=none;" vertex="1" parent="4dqZTrc1SoPVpxpCQpWB-0">
          <mxGeometry x="953.18" y="154.7" width="114.82" height="43.51" as="geometry" />
        </mxCell>
        <mxCell id="EcYpv5kJXtkifqaUbWwn-24" value="" style="rounded=0;whiteSpace=wrap;html=1;strokeWidth=6;strokeColor=#FF9933;fillColor=none;" vertex="1" parent="4dqZTrc1SoPVpxpCQpWB-0">
          <mxGeometry x="1164.61" y="154.7" width="119.39" height="43.51" as="geometry" />
        </mxCell>
        <mxCell id="EcYpv5kJXtkifqaUbWwn-25" value="" style="rounded=0;whiteSpace=wrap;html=1;strokeWidth=6;strokeColor=#FF9933;fillColor=none;" vertex="1" parent="4dqZTrc1SoPVpxpCQpWB-0">
          <mxGeometry x="942.68" y="376" width="140.32" height="65" as="geometry" />
        </mxCell>
        <mxCell id="u5yaHZLS7aTjfBpLh_kH-1" value="" style="rounded=0;whiteSpace=wrap;html=1;strokeWidth=6;strokeColor=#FF9933;fillColor=none;" vertex="1" parent="4dqZTrc1SoPVpxpCQpWB-0">
          <mxGeometry x="1136" y="376" width="140.32" height="65" as="geometry" />
        </mxCell>
        <UserObject label="Virtual Machines" link="data:action/json,{&quot;actions&quot;:[{&quot;toggle&quot;:{&quot;cells&quot;:[&quot;4dqZTrc1SoPVpxpCQpWB-0&quot;]}}]}" id="SP6P7kpSR7Q2aPnXeVnb-5">
          <mxCell style="rounded=1;whiteSpace=wrap;html=1;fontStyle=0;strokeColor=#82b366;arcSize=0;fontSize=15;fillColor=#d5e8d4;" vertex="1" parent="4dqZTrc1SoPVpxpCQpWB-0">
            <mxGeometry x="19" y="42" width="123.5" height="32" as="geometry" />
          </mxCell>
        </UserObject>
        <mxCell id="SP6P7kpSR7Q2aPnXeVnb-16" value="" style="endArrow=classic;startArrow=classic;html=1;rounded=0;entryX=0;entryY=0.75;entryDx=0;entryDy=0;fontSize=15;exitX=1;exitY=0.75;exitDx=0;exitDy=0;strokeWidth=5;strokeColor=#FF8000;" edge="1" parent="4dqZTrc1SoPVpxpCQpWB-0" source="EcYpv5kJXtkifqaUbWwn-22" target="EcYpv5kJXtkifqaUbWwn-23">
          <mxGeometry width="50" height="50" relative="1" as="geometry">
            <mxPoint x="912" y="292" as="sourcePoint" />
            <mxPoint x="906" y="171" as="targetPoint" />
          </mxGeometry>
        </mxCell>
        <mxCell id="SP6P7kpSR7Q2aPnXeVnb-18" value="&lt;div style=&quot;font-size: 15px;&quot;&gt;&lt;div style=&quot;font-size: 15px;&quot;&gt;IPv6&lt;/div&gt;&lt;/div&gt;" style="rounded=0;whiteSpace=wrap;html=1;align=center;fillColor=none;strokeColor=none;fontSize=15;fontStyle=1;fontColor=#FF8000;" vertex="1" parent="4dqZTrc1SoPVpxpCQpWB-0">
          <mxGeometry x="856.0025020336091" y="151.99541609822643" width="91.34956521739129" height="39.39495225102319" as="geometry" />
        </mxCell>
        <mxCell id="EzRBEl8uBjMTjhNUBAp0-7" value="&lt;div style=&quot;font-size: 15px;&quot;&gt;&lt;div style=&quot;font-size: 15px;&quot;&gt;IPv6&lt;/div&gt;&lt;/div&gt;" style="rounded=0;whiteSpace=wrap;html=1;align=center;fillColor=none;strokeColor=none;fontSize=15;fontStyle=1;fontColor=#FF8000;" vertex="1" parent="4dqZTrc1SoPVpxpCQpWB-0">
          <mxGeometry x="867.0025020336091" y="252.60541609822644" width="91.34956521739129" height="39.39495225102319" as="geometry" />
        </mxCell>
        <mxCell id="EzRBEl8uBjMTjhNUBAp0-9" value="&lt;div style=&quot;font-size: 15px;&quot;&gt;&lt;div style=&quot;font-size: 15px;&quot;&gt;IPv6&lt;/div&gt;&lt;/div&gt;" style="rounded=0;whiteSpace=wrap;html=1;align=center;fillColor=none;strokeColor=none;fontSize=15;fontStyle=1;fontColor=#FF8000;" vertex="1" parent="4dqZTrc1SoPVpxpCQpWB-0">
          <mxGeometry x="1223.002502033609" y="488.9954160982264" width="91.34956521739129" height="39.39495225102319" as="geometry" />
        </mxCell>
        <mxCell id="EzRBEl8uBjMTjhNUBAp0-8" value="" style="endArrow=classic;startArrow=classic;html=1;rounded=0;fontSize=15;exitX=0.75;exitY=1;exitDx=0;exitDy=0;strokeWidth=5;strokeColor=#FF8000;" edge="1" parent="4dqZTrc1SoPVpxpCQpWB-0">
          <mxGeometry width="50" height="50" relative="1" as="geometry">
            <mxPoint x="1240.35" y="443.43" as="sourcePoint" />
            <mxPoint x="1268" y="811" as="targetPoint" />
          </mxGeometry>
        </mxCell>
      </root>
    </mxGraphModel>
  </diagram>
  <diagram name="vWAN" id="6yQsX-O-Opu6aDxYZ4H4">
    <mxGraphModel grid="0" page="1" gridSize="10" guides="1" tooltips="1" connect="1" arrows="1" fold="1" pageScale="1" pageWidth="1600" pageHeight="900" math="0" shadow="0">
      <root>
        <mxCell id="0" />
        <object label="base" id="1">
          <mxCell style="" parent="0" />
        </object>
        <mxCell id="a0RY7SGEbCEtBgt_163V-38" value="&lt;b style=&quot;font-size: 14px;&quot;&gt;Hub1&lt;/b&gt;&lt;br style=&quot;font-size: 14px;&quot;&gt;&lt;div style=&quot;font-size: 14px;&quot;&gt;10.11.0.0./20&lt;/div&gt;&lt;div style=&quot;font-size: 14px;&quot;&gt;10.11.16.0/20&lt;/div&gt;&lt;div style=&quot;font-size: 14px;&quot;&gt;fd00:db8:11::/56&lt;/div&gt;&lt;div style=&quot;font-size: 14px;&quot;&gt;fd00:db8:11:aa00::/56&lt;/div&gt;" style="rounded=0;whiteSpace=wrap;html=1;dashed=1;align=left;verticalAlign=top;spacingTop=1;spacing=1;spacingLeft=4;spacingBottom=1;spacingRight=1;fillColor=#f5f5f5;fontColor=#333333;strokeColor=#000000;fontSize=14;" vertex="1" parent="1">
          <mxGeometry x="942.6730585683297" y="295.7257844474761" width="476.11852494577" height="195.18553888130967" as="geometry" />
        </mxCell>
        <mxCell id="a0RY7SGEbCEtBgt_163V-12" value="&lt;b style=&quot;font-size: 14px;&quot;&gt;Spoke3&lt;/b&gt;&lt;div style=&quot;font-size: 14px;&quot;&gt;10.3.0.0./20&lt;/div&gt;&lt;div style=&quot;font-size: 14px;&quot;&gt;fd00:db8:1::/56&lt;/div&gt;" style="rounded=0;whiteSpace=wrap;html=1;dashed=1;align=left;verticalAlign=top;spacingTop=1;spacing=1;spacingLeft=4;spacingBottom=1;spacingRight=1;fillColor=#f5f5f5;fontColor=#333333;strokeColor=#000000;fontSize=14;" vertex="1" parent="1">
          <mxGeometry x="1177.3475921908894" y="50.89768076398363" width="267.39357917570493" height="166.9795361527967" as="geometry" />
        </mxCell>
        <mxCell id="a0RY7SGEbCEtBgt_163V-5" value="&lt;b style=&quot;font-size: 14px;&quot;&gt;Spoke1&lt;/b&gt;&lt;div style=&quot;font-size: 14px;&quot;&gt;10.1.0.0./20&lt;/div&gt;&lt;div style=&quot;font-size: 14px;&quot;&gt;fd00:db8:1::/56&lt;/div&gt;" style="rounded=0;whiteSpace=wrap;html=1;dashed=1;align=left;verticalAlign=top;spacingTop=1;spacing=1;spacingLeft=4;spacingBottom=1;spacingRight=1;fillColor=#f5f5f5;strokeColor=#000000;fontColor=#333333;fontSize=14;" vertex="1" parent="1">
          <mxGeometry x="752" y="50.89768076398363" width="142.15861171366592" height="166.9795361527967" as="geometry" />
        </mxCell>
        <mxCell id="a0RY7SGEbCEtBgt_163V-1" value="" style="image;aspect=fixed;html=1;points=[];align=center;fontSize=14;image=img/lib/azure2/compute/Virtual_Machine.svg;" vertex="1" parent="1">
          <mxGeometry x="808.8747271149674" y="121.97680763983628" width="34.05025155708373" height="31.59069064275495" as="geometry" />
        </mxCell>
        <mxCell id="a0RY7SGEbCEtBgt_163V-3" value="&lt;div style=&quot;font-size: 14px;&quot;&gt;&lt;div style=&quot;font-size: 14px;&quot;&gt;10.1.0.5&lt;/div&gt;&lt;div style=&quot;font-size: 14px;&quot;&gt;fd00:db8:1::/64&lt;/div&gt;&lt;/div&gt;" style="rounded=0;whiteSpace=wrap;html=1;align=center;fontSize=14;" vertex="1" parent="1">
          <mxGeometry x="768.9236442516269" y="158.08049113233287" width="103.7983514099783" height="39.48840381991814" as="geometry" />
        </mxCell>
        <mxCell id="a0RY7SGEbCEtBgt_163V-6" value="" style="image;aspect=fixed;html=1;points=[];align=center;fontSize=14;image=img/lib/azure2/networking/Virtual_Networks.svg;" vertex="1" parent="1">
          <mxGeometry x="853.5418655097614" y="43" width="30.462451691227987" height="18.18721189861464" as="geometry" />
        </mxCell>
        <mxCell id="a0RY7SGEbCEtBgt_163V-13" value="" style="image;aspect=fixed;html=1;points=[];align=center;fontSize=14;image=img/lib/azure2/compute/Virtual_Machine.svg;" vertex="1" parent="1">
          <mxGeometry x="1234.2223193058567" y="121.97680763983628" width="34.05025155708373" height="31.59069064275495" as="geometry" />
        </mxCell>
        <mxCell id="a0RY7SGEbCEtBgt_163V-14" value="&lt;div style=&quot;font-size: 14px;&quot;&gt;&lt;div style=&quot;font-size: 14px;&quot;&gt;10.3.0.5&lt;/div&gt;&lt;div style=&quot;font-size: 14px;&quot;&gt;fd00:db8:3::/64&lt;/div&gt;&lt;/div&gt;" style="rounded=0;whiteSpace=wrap;html=1;align=center;fontSize=14;" vertex="1" parent="1">
          <mxGeometry x="1194.271236442516" y="158.08049113233287" width="113.95253796095443" height="39.48840381991814" as="geometry" />
        </mxCell>
        <mxCell id="a0RY7SGEbCEtBgt_163V-15" value="" style="image;aspect=fixed;html=1;points=[];align=center;fontSize=14;image=img/lib/azure2/networking/Virtual_Networks.svg;" vertex="1" parent="1">
          <mxGeometry x="1296.941344902386" y="43" width="30.462451691227987" height="18.18721189861464" as="geometry" />
        </mxCell>
        <mxCell id="a0RY7SGEbCEtBgt_163V-16" value="" style="image;aspect=fixed;html=1;points=[];align=center;fontSize=14;image=img/lib/azure2/networking/Load_Balancers.svg;" vertex="1" parent="1">
          <mxGeometry x="1358.9947071583513" y="100.54024556616643" width="39.48836330344369" height="39.48836330344369" as="geometry" />
        </mxCell>
        <mxCell id="a0RY7SGEbCEtBgt_163V-18" value="&lt;div style=&quot;font-size: 14px;&quot;&gt;&lt;div style=&quot;font-size: 14px;&quot;&gt;&lt;b style=&quot;font-size: 14px;&quot;&gt;Azure LB&lt;/b&gt;&lt;/div&gt;&lt;div style=&quot;font-size: 14px;&quot;&gt;10.3.5.0/24&lt;/div&gt;&lt;div style=&quot;font-size: 14px;&quot;&gt;fd00:db8:3:5::/64&lt;/div&gt;&lt;/div&gt;" style="rounded=0;whiteSpace=wrap;html=1;align=center;strokeColor=none;fillColor=none;fontSize=14;" vertex="1" parent="1">
          <mxGeometry x="1321.7626898047722" y="146.7980900409277" width="113.95253796095443" height="50.770804911323324" as="geometry" />
        </mxCell>
        <mxCell id="a0RY7SGEbCEtBgt_163V-21" value="&lt;div style=&quot;font-size: 14px;&quot;&gt;&lt;div style=&quot;font-size: 14px;&quot;&gt;FrontEnd&lt;/div&gt;&lt;div style=&quot;font-size: 14px;&quot;&gt;4.209.46.22&lt;/div&gt;&lt;div style=&quot;font-size: 14px;&quot;&gt;2603:1020:2:4::26&lt;/div&gt;&lt;/div&gt;" style="rounded=0;whiteSpace=wrap;html=1;align=center;fillColor=#eeeeee;strokeColor=#36393d;fontSize=14;" vertex="1" parent="1">
          <mxGeometry x="1400.7396963123642" y="90.38608458390178" width="129.74793926247287" height="53.02728512960436" as="geometry" />
        </mxCell>
        <mxCell id="a0RY7SGEbCEtBgt_163V-37" style="edgeStyle=orthogonalEdgeStyle;curved=1;rounded=0;orthogonalLoop=1;jettySize=auto;html=1;entryX=0.947;entryY=0.393;entryDx=0;entryDy=0;entryPerimeter=0;fontSize=14;" edge="1" parent="1" source="a0RY7SGEbCEtBgt_163V-16" target="a0RY7SGEbCEtBgt_163V-13">
          <mxGeometry relative="1" as="geometry" />
        </mxCell>
        <mxCell id="a0RY7SGEbCEtBgt_163V-39" value="" style="image;aspect=fixed;html=1;points=[];align=center;fontSize=14;image=img/lib/azure2/compute/Virtual_Machine.svg;" vertex="1" parent="1">
          <mxGeometry x="1091.6011279826464" y="418.1398362892224" width="34.05025155708373" height="31.59069064275495" as="geometry" />
        </mxCell>
        <mxCell id="a0RY7SGEbCEtBgt_163V-40" value="&lt;div style=&quot;font-size: 14px;&quot;&gt;&lt;div style=&quot;font-size: 14px;&quot;&gt;UntrustSubnet&lt;/div&gt;&lt;div style=&quot;font-size: 14px;&quot;&gt;10.11.1.0/24&lt;/div&gt;&lt;div style=&quot;font-size: 14px;&quot;&gt;fd00:db8:11:1::/64&lt;/div&gt;&lt;/div&gt;" style="rounded=0;whiteSpace=wrap;html=1;align=center;fontSize=14;" vertex="1" parent="1">
          <mxGeometry x="959.5967028199566" y="403.47271487039563" width="121.85023861171365" height="60.92496589358799" as="geometry" />
        </mxCell>
        <mxCell id="a0RY7SGEbCEtBgt_163V-42" value="" style="image;aspect=fixed;html=1;points=[];align=center;fontSize=14;image=img/lib/azure2/networking/Private_Endpoint.svg;" vertex="1" parent="1">
          <mxGeometry x="1345.5573336225596" y="314.9058663028649" width="39.386821797806256" height="36.103646448862804" as="geometry" />
        </mxCell>
        <mxCell id="a0RY7SGEbCEtBgt_163V-43" value="&lt;div style=&quot;font-size: 14px;&quot;&gt;&lt;div style=&quot;font-size: 14px;&quot;&gt;TrustSubnet&lt;/div&gt;&lt;div style=&quot;font-size: 14px;&quot;&gt;10.11.2.0/24&lt;/div&gt;&lt;div style=&quot;font-size: 14px;&quot;&gt;fd00:db8:11:2::/64&lt;/div&gt;&lt;/div&gt;" style="rounded=0;whiteSpace=wrap;html=1;align=center;fontSize=14;" vertex="1" parent="1">
          <mxGeometry x="1135.6026030368762" y="403.47271487039563" width="121.85023861171365" height="60.92496589358799" as="geometry" />
        </mxCell>
        <mxCell id="a0RY7SGEbCEtBgt_163V-44" value="&lt;div style=&quot;font-size: 14px;&quot;&gt;&lt;div style=&quot;font-size: 14px;&quot;&gt;Private Endpoint&lt;/div&gt;&lt;div style=&quot;font-size: 14px;&quot;&gt;10.11.7.99&lt;/div&gt;&lt;/div&gt;" style="rounded=0;whiteSpace=wrap;html=1;align=center;fillColor=none;strokeColor=none;fontSize=14;" vertex="1" parent="1">
          <mxGeometry x="1228.772905856833" y="319.418826739427" width="121.85023861171365" height="40.61664392905866" as="geometry" />
        </mxCell>
        <mxCell id="a0RY7SGEbCEtBgt_163V-45" value="" style="image;aspect=fixed;html=1;points=[];align=center;fontSize=14;image=img/lib/azure2/networking/DNS_Private_Resolver.svg;" vertex="1" parent="1">
          <mxGeometry x="1335.8544442516268" y="387.1132332878581" width="47.30705923752554" height="41.74484120649761" as="geometry" />
        </mxCell>
        <mxCell id="a0RY7SGEbCEtBgt_163V-46" value="&lt;div style=&quot;font-size: 14px;&quot;&gt;&lt;div style=&quot;font-size: 14px;&quot;&gt;Inbound&lt;/div&gt;&lt;div style=&quot;font-size: 14px;&quot;&gt;10.11.8.4&lt;/div&gt;&lt;/div&gt;" style="rounded=0;whiteSpace=wrap;html=1;align=center;fillColor=none;strokeColor=none;fontSize=14;" vertex="1" parent="1">
          <mxGeometry x="1314.3783396963122" y="433.37107776261934" width="90.25943600867677" height="38.92428376534788" as="geometry" />
        </mxCell>
        <mxCell id="a0RY7SGEbCEtBgt_163V-48" value="" style="image;aspect=fixed;html=1;points=[];align=center;fontSize=14;image=img/lib/azure2/storage/Storage_Accounts.svg;" vertex="1" parent="1">
          <mxGeometry x="1463.921301518438" y="304.75170532060025" width="38.078064614034986" height="30.462451691227987" as="geometry" />
        </mxCell>
        <mxCell id="a0RY7SGEbCEtBgt_163V-50" style="edgeStyle=orthogonalEdgeStyle;curved=1;rounded=0;orthogonalLoop=1;jettySize=auto;html=1;entryX=-0.03;entryY=0.407;entryDx=0;entryDy=0;entryPerimeter=0;exitX=0.914;exitY=0.656;exitDx=0;exitDy=0;exitPerimeter=0;fontSize=14;" edge="1" parent="1" source="a0RY7SGEbCEtBgt_163V-42" target="a0RY7SGEbCEtBgt_163V-48">
          <mxGeometry relative="1" as="geometry" />
        </mxCell>
        <mxCell id="a0RY7SGEbCEtBgt_163V-56" value="" style="endArrow=classic;startArrow=classic;html=1;rounded=0;entryX=0.5;entryY=1;entryDx=0;entryDy=0;exitX=0.168;exitY=-0.034;exitDx=0;exitDy=0;exitPerimeter=0;fontSize=14;" edge="1" parent="1" source="a0RY7SGEbCEtBgt_163V-57" target="a0RY7SGEbCEtBgt_163V-5">
          <mxGeometry width="50" height="50" relative="1" as="geometry">
            <mxPoint x="925.7494143167028" y="546.1950886766712" as="sourcePoint" />
            <mxPoint x="992.8798698481562" y="241.57025920873122" as="targetPoint" />
          </mxGeometry>
        </mxCell>
        <mxCell id="I4ScSmYneFrUNx_qyKmI-9" value="Vnet&lt;div&gt;Connection&lt;/div&gt;" style="edgeLabel;html=1;align=center;verticalAlign=middle;resizable=0;points=[];" connectable="0" vertex="1" parent="a0RY7SGEbCEtBgt_163V-56">
          <mxGeometry x="0.0344" y="-1" relative="1" as="geometry">
            <mxPoint as="offset" />
          </mxGeometry>
        </mxCell>
        <mxCell id="a0RY7SGEbCEtBgt_163V-57" value="Virtual WAN Hub&lt;div style=&quot;font-size: 14px;&quot;&gt;&lt;b style=&quot;font-size: 14px;&quot;&gt;vHub1&lt;/b&gt;&lt;/div&gt;&lt;div style=&quot;font-size: 14px;&quot;&gt;192.168.11.0/24&lt;/div&gt;" style="rounded=0;whiteSpace=wrap;html=1;dashed=1;align=left;verticalAlign=top;spacingTop=1;spacing=1;spacingLeft=4;spacingBottom=1;spacingRight=1;fillColor=#f5f5f5;fontColor=#333333;strokeColor=#000000;fontSize=14;" vertex="1" parent="1">
          <mxGeometry x="812.9251193058568" y="550.7080491132333" width="476.11852494577" height="110.5675306957708" as="geometry" />
        </mxCell>
        <mxCell id="a0RY7SGEbCEtBgt_163V-58" value="" style="image;aspect=fixed;html=1;points=[];align=center;fontSize=14;image=img/lib/azure2/networking/Virtual_Network_Gateways.svg;" vertex="1" parent="1">
          <mxGeometry x="1018.2653362255965" y="593.0170532060027" width="28.905481938120783" height="38.360124351916724" as="geometry" />
        </mxCell>
        <mxCell id="a0RY7SGEbCEtBgt_163V-60" value="" style="image;aspect=fixed;html=1;points=[];align=center;fontSize=14;image=img/lib/azure2/networking/Firewalls.svg;" vertex="1" parent="1">
          <mxGeometry x="1104.0118004338394" y="596.4017735334243" width="37.37855646408827" height="31.59069064275495" as="geometry" />
        </mxCell>
        <mxCell id="a0RY7SGEbCEtBgt_163V-61" value="" style="image;aspect=fixed;html=1;points=[];align=center;fontSize=14;image=img/lib/azure2/networking/Virtual_Router.svg;" vertex="1" parent="1">
          <mxGeometry x="1198.7842082429502" y="595.837653478854" width="32.71892959428192" height="32.71892959428192" as="geometry" />
        </mxCell>
        <mxCell id="a0RY7SGEbCEtBgt_163V-64" value="" style="endArrow=none;dashed=1;html=1;dashPattern=1 3;strokeWidth=2;rounded=0;exitX=0.552;exitY=0.069;exitDx=0;exitDy=0;exitPerimeter=0;entryX=0.5;entryY=1;entryDx=0;entryDy=0;fontSize=14;" edge="1" parent="1" source="a0RY7SGEbCEtBgt_163V-61" target="a0RY7SGEbCEtBgt_163V-43">
          <mxGeometry width="50" height="50" relative="1" as="geometry">
            <mxPoint x="1269.863514099783" y="540.5538881309686" as="sourcePoint" />
            <mxPoint x="1326.275661605206" y="484.1418826739427" as="targetPoint" />
          </mxGeometry>
        </mxCell>
        <mxCell id="I4ScSmYneFrUNx_qyKmI-8" value="BGP" style="edgeLabel;html=1;align=center;verticalAlign=middle;resizable=0;points=[];" connectable="0" vertex="1" parent="a0RY7SGEbCEtBgt_163V-64">
          <mxGeometry x="0.0679" y="-1" relative="1" as="geometry">
            <mxPoint as="offset" />
          </mxGeometry>
        </mxCell>
        <mxCell id="a0RY7SGEbCEtBgt_163V-65" value="" style="image;aspect=fixed;html=1;points=[];align=center;fontSize=14;image=img/lib/azure2/networking/Load_Balancers.svg;" vertex="1" parent="1">
          <mxGeometry x="1247.2986550976138" y="413.06275579809" width="39.48836330344369" height="39.48836330344369" as="geometry" />
        </mxCell>
        <mxCell id="a0RY7SGEbCEtBgt_163V-68" value="&lt;div style=&quot;font-size: 14px;&quot;&gt;&lt;b style=&quot;font-size: 14px;&quot;&gt;Branch1&lt;/b&gt;&lt;/div&gt;&lt;div style=&quot;font-size: 14px;&quot;&gt;10.10.0.0/20&lt;/div&gt;&lt;div style=&quot;font-size: 14px;&quot;&gt;fd00:db8:10::/48&lt;/div&gt;" style="rounded=0;whiteSpace=wrap;html=1;dashed=1;align=left;verticalAlign=top;spacingTop=1;spacing=1;spacingLeft=4;spacingBottom=1;spacingRight=1;fillColor=#f5f5f5;strokeColor=#000000;fontColor=#333333;fontSize=14;" vertex="1" parent="1">
          <mxGeometry x="865.9525379609545" y="732.3547066848568" width="262.8806073752711" height="137.64529331514322" as="geometry" />
        </mxCell>
        <mxCell id="a0RY7SGEbCEtBgt_163V-69" value="" style="image;aspect=fixed;html=1;points=[];align=center;fontSize=14;image=img/lib/azure2/compute/Virtual_Machine.svg;" vertex="1" parent="1">
          <mxGeometry x="1021.6500650759219" y="813.0238744884037" width="34.05025155708373" height="31.59069064275495" as="geometry" />
        </mxCell>
        <mxCell id="a0RY7SGEbCEtBgt_163V-70" value="&lt;div style=&quot;font-size: 14px;&quot;&gt;&lt;div style=&quot;font-size: 14px;&quot;&gt;10.10.0.0/24&lt;/div&gt;&lt;div style=&quot;font-size: 14px;&quot;&gt;fd00:db8:10::/64&lt;/div&gt;&lt;/div&gt;" style="rounded=0;whiteSpace=wrap;html=1;align=center;fontSize=14;" vertex="1" parent="1">
          <mxGeometry x="891.902125813449" y="809.075034106412" width="113.95253796095443" height="39.48840381991814" as="geometry" />
        </mxCell>
        <mxCell id="a0RY7SGEbCEtBgt_163V-71" value="" style="image;aspect=fixed;html=1;points=[];align=center;fontSize=14;image=img/lib/azure2/networking/Virtual_Networks.svg;" vertex="1" parent="1">
          <mxGeometry x="1084.8316702819957" y="753.7912687585266" width="30.462451691227987" height="18.18721189861464" as="geometry" />
        </mxCell>
        <mxCell id="a0RY7SGEbCEtBgt_163V-73" value="" style="image;aspect=fixed;html=1;points=[];align=center;fontSize=14;image=img/lib/azure2/networking/Virtual_Router.svg;" vertex="1" parent="1">
          <mxGeometry x="1016.3586056399131" y="747.6536425648021" width="32.71892959428192" height="32.71892959428192" as="geometry" />
        </mxCell>
        <mxCell id="a0RY7SGEbCEtBgt_163V-79" value="" style="endArrow=classic;startArrow=classic;html=1;rounded=0;exitX=0.472;exitY=-0.019;exitDx=0;exitDy=0;exitPerimeter=0;entryX=0.468;entryY=0.926;entryDx=0;entryDy=0;entryPerimeter=0;fontSize=14;" edge="1" parent="1" source="a0RY7SGEbCEtBgt_163V-73" target="a0RY7SGEbCEtBgt_163V-58">
          <mxGeometry width="50" height="50" relative="1" as="geometry">
            <mxPoint x="1248.4268980477223" y="612.7612551159618" as="sourcePoint" />
            <mxPoint x="1304.8390455531453" y="556.3492496589358" as="targetPoint" />
          </mxGeometry>
        </mxCell>
        <mxCell id="I4ScSmYneFrUNx_qyKmI-7" value="IPsec + BGP" style="edgeLabel;html=1;align=center;verticalAlign=middle;resizable=0;points=[];" connectable="0" vertex="1" parent="a0RY7SGEbCEtBgt_163V-79">
          <mxGeometry x="-0.0547" y="1" relative="1" as="geometry">
            <mxPoint as="offset" />
          </mxGeometry>
        </mxCell>
        <mxCell id="I4ScSmYneFrUNx_qyKmI-1" value="&lt;b style=&quot;font-size: 14px;&quot;&gt;Spoke2&lt;/b&gt;&lt;div style=&quot;font-size: 14px;&quot;&gt;&lt;span style=&quot;background-color: initial; font-size: 14px;&quot;&gt;10.2.0.0./20&lt;/span&gt;&lt;div style=&quot;font-size: 14px;&quot;&gt;fd00:db8:1::/56&lt;/div&gt;&lt;/div&gt;" style="rounded=0;whiteSpace=wrap;html=1;dashed=1;align=left;verticalAlign=top;spacingTop=1;spacing=1;spacingLeft=4;spacingBottom=1;spacingRight=1;fillColor=#f5f5f5;strokeColor=#000000;fontColor=#333333;fontSize=14;" vertex="1" parent="1">
          <mxGeometry x="970.8791323210412" y="50.89768076398363" width="142.15861171366592" height="166.9795361527967" as="geometry" />
        </mxCell>
        <mxCell id="I4ScSmYneFrUNx_qyKmI-2" value="" style="image;aspect=fixed;html=1;points=[];align=center;fontSize=14;image=img/lib/azure2/compute/Virtual_Machine.svg;" vertex="1" parent="1">
          <mxGeometry x="1027.7538594360085" y="121.97680763983628" width="34.05025155708373" height="31.59069064275495" as="geometry" />
        </mxCell>
        <mxCell id="I4ScSmYneFrUNx_qyKmI-3" value="&lt;div style=&quot;font-size: 14px;&quot;&gt;&lt;div style=&quot;font-size: 14px;&quot;&gt;10.2.0.5&lt;/div&gt;&lt;div style=&quot;font-size: 14px;&quot;&gt;fd00:db8:2::/64&lt;/div&gt;&lt;/div&gt;" style="rounded=0;whiteSpace=wrap;html=1;align=center;fontSize=14;" vertex="1" parent="1">
          <mxGeometry x="987.8027765726681" y="158.08049113233287" width="103.7983514099783" height="39.48840381991814" as="geometry" />
        </mxCell>
        <mxCell id="I4ScSmYneFrUNx_qyKmI-4" value="" style="image;aspect=fixed;html=1;points=[];align=center;fontSize=14;image=img/lib/azure2/networking/Virtual_Networks.svg;" vertex="1" parent="1">
          <mxGeometry x="1072.4209978308027" y="43" width="30.462451691227987" height="18.18721189861464" as="geometry" />
        </mxCell>
        <mxCell id="I4ScSmYneFrUNx_qyKmI-5" value="" style="endArrow=classic;startArrow=classic;html=1;rounded=0;entryX=0.5;entryY=1;entryDx=0;entryDy=0;exitX=0.209;exitY=0.003;exitDx=0;exitDy=0;exitPerimeter=0;fontSize=14;" edge="1" parent="1" source="a0RY7SGEbCEtBgt_163V-38" target="I4ScSmYneFrUNx_qyKmI-1">
          <mxGeometry width="50" height="50" relative="1" as="geometry">
            <mxPoint x="1206.6819088937093" y="356.6507503410641" as="sourcePoint" />
            <mxPoint x="1263.0940563991321" y="300.23874488403817" as="targetPoint" />
          </mxGeometry>
        </mxCell>
        <mxCell id="I4ScSmYneFrUNx_qyKmI-10" value="Vnet Peering" style="edgeLabel;html=1;align=center;verticalAlign=middle;resizable=0;points=[];" connectable="0" vertex="1" parent="I4ScSmYneFrUNx_qyKmI-5">
          <mxGeometry x="0.0178" relative="1" as="geometry">
            <mxPoint as="offset" />
          </mxGeometry>
        </mxCell>
        <mxCell id="I4ScSmYneFrUNx_qyKmI-11" value="&lt;div style=&quot;font-size: 14px;&quot;&gt;&lt;div style=&quot;font-size: 14px;&quot;&gt;Storage&amp;nbsp;&lt;/div&gt;&lt;div style=&quot;font-size: 14px;&quot;&gt;Account&lt;/div&gt;&lt;/div&gt;" style="rounded=0;whiteSpace=wrap;html=1;align=center;fillColor=none;strokeColor=none;fontSize=14;" vertex="1" parent="1">
          <mxGeometry x="1437.8306832971798" y="259.6221009549795" width="90.25943600867677" height="38.92428376534788" as="geometry" />
        </mxCell>
        <mxCell id="I4ScSmYneFrUNx_qyKmI-12" style="edgeStyle=none;rounded=0;orthogonalLoop=1;jettySize=auto;html=1;exitX=0.5;exitY=1;exitDx=0;exitDy=0;fontSize=14;" edge="1" parent="1" source="I4ScSmYneFrUNx_qyKmI-11" target="I4ScSmYneFrUNx_qyKmI-11">
          <mxGeometry relative="1" as="geometry" />
        </mxCell>
        <mxCell id="I4ScSmYneFrUNx_qyKmI-121" value="" style="image;aspect=fixed;html=1;points=[];align=center;fontSize=14;image=img/lib/azure2/networking/DNS_Zones.svg;" vertex="1" parent="1">
          <mxGeometry x="1467.3060303687635" y="404.0368349249659" width="39.48836330344369" height="39.48836330344369" as="geometry" />
        </mxCell>
        <mxCell id="I4ScSmYneFrUNx_qyKmI-122" value="&lt;div style=&quot;font-size: 14px;&quot;&gt;&lt;div style=&quot;font-size: 14px;&quot;&gt;Private DNS Zone&lt;/div&gt;&lt;/div&gt;" style="rounded=0;whiteSpace=wrap;html=1;align=center;fillColor=none;strokeColor=none;fontSize=14;" vertex="1" parent="1">
          <mxGeometry x="1441.920563991323" y="449.1664392905866" width="90.25943600867677" height="38.92428376534788" as="geometry" />
        </mxCell>
        <mxCell id="Xzecq4I0pfDTHi-EAl2l-1" value="&lt;div style=&quot;font-size: 14px;&quot;&gt;&lt;div style=&quot;font-size: 14px;&quot;&gt;VPN Gateway&lt;/div&gt;&lt;/div&gt;" style="rounded=0;whiteSpace=wrap;html=1;align=center;fillColor=none;strokeColor=none;fontSize=14;" vertex="1" parent="1">
          <mxGeometry x="987.5884104121474" y="561.9904502046385" width="90.25943600867677" height="38.92428376534788" as="geometry" />
        </mxCell>
        <mxCell id="I4ScSmYneFrUNx_qyKmI-60" value="Toggles" style="" parent="0" />
        <mxCell id="I4ScSmYneFrUNx_qyKmI-61" value="Virtual Machines" style="rounded=1;whiteSpace=wrap;html=1;fontStyle=0;strokeColor=#8a8a8a;" vertex="1" parent="I4ScSmYneFrUNx_qyKmI-60">
          <mxGeometry x="40" y="676" width="109" height="27" as="geometry" />
        </mxCell>
        <mxCell id="I4ScSmYneFrUNx_qyKmI-62" value="Load Balancer" style="rounded=1;whiteSpace=wrap;html=1;fontStyle=0;strokeColor=#8a8a8a;" vertex="1" parent="I4ScSmYneFrUNx_qyKmI-60">
          <mxGeometry x="40" y="717" width="105" height="27" as="geometry" />
        </mxCell>
        <mxCell id="I4ScSmYneFrUNx_qyKmI-65" value="Azure DNS" style="rounded=1;whiteSpace=wrap;html=1;fontStyle=0;strokeColor=#8a8a8a;" vertex="1" parent="I4ScSmYneFrUNx_qyKmI-60">
          <mxGeometry x="160" y="676" width="89" height="27" as="geometry" />
        </mxCell>
        <mxCell id="I4ScSmYneFrUNx_qyKmI-66" value="Monitoring" style="rounded=1;whiteSpace=wrap;html=1;fontStyle=0;strokeColor=#8a8a8a;" vertex="1" parent="I4ScSmYneFrUNx_qyKmI-60">
          <mxGeometry x="160" y="717" width="88" height="27" as="geometry" />
        </mxCell>
        <UserObject label="VNet Gateways" link="data:action/json,{&quot;actions&quot;:[{&quot;toggle&quot;: {&quot;cells&quot;: [&quot;I4ScSmYneFrUNx_qyKmI-77&quot;]}}]}" id="I4ScSmYneFrUNx_qyKmI-67">
          <mxCell style="rounded=1;whiteSpace=wrap;html=1;fontStyle=0;strokeColor=#8a8a8a;" vertex="1" parent="I4ScSmYneFrUNx_qyKmI-60">
            <mxGeometry x="37" y="635" width="108" height="27" as="geometry" />
          </mxCell>
        </UserObject>
        <mxCell id="I4ScSmYneFrUNx_qyKmI-69" value="Limitations" style="rounded=1;whiteSpace=wrap;html=1;fontStyle=0;strokeColor=#8a8a8a;" vertex="1" parent="I4ScSmYneFrUNx_qyKmI-60">
          <mxGeometry x="160" y="636" width="89" height="27" as="geometry" />
        </mxCell>
        <mxCell id="I4ScSmYneFrUNx_qyKmI-70" value="NSG" style="rounded=1;whiteSpace=wrap;html=1;fontStyle=0;strokeColor=#8a8a8a;" vertex="1" parent="I4ScSmYneFrUNx_qyKmI-60">
          <mxGeometry x="40" y="760" width="55" height="27" as="geometry" />
        </mxCell>
        <mxCell id="I4ScSmYneFrUNx_qyKmI-71" value="UDR" style="rounded=1;whiteSpace=wrap;html=1;fontStyle=0;strokeColor=#8a8a8a;" vertex="1" parent="I4ScSmYneFrUNx_qyKmI-60">
          <mxGeometry x="112" y="760" width="51" height="27" as="geometry" />
        </mxCell>
        <mxCell id="I4ScSmYneFrUNx_qyKmI-72" value="Firewall" style="rounded=1;whiteSpace=wrap;html=1;fontStyle=0;strokeColor=#8a8a8a;" vertex="1" parent="I4ScSmYneFrUNx_qyKmI-60">
          <mxGeometry x="179" y="761" width="67" height="27" as="geometry" />
        </mxCell>
        <mxCell id="I4ScSmYneFrUNx_qyKmI-78" value="Limitations" parent="0" />
        <mxCell id="I4ScSmYneFrUNx_qyKmI-85" value="UDR" parent="0" />
        <mxCell id="I4ScSmYneFrUNx_qyKmI-115" value="" style="image;aspect=fixed;html=1;points=[];align=center;fontSize=12;image=img/lib/azure2/networking/Route_Tables.svg;" vertex="1" parent="I4ScSmYneFrUNx_qyKmI-85">
          <mxGeometry x="561" y="147" width="37.69" height="36.5" as="geometry" />
        </mxCell>
        <mxCell id="I4ScSmYneFrUNx_qyKmI-116" value="" style="image;aspect=fixed;html=1;points=[];align=center;fontSize=12;image=img/lib/azure2/networking/Route_Tables.svg;" vertex="1" parent="I4ScSmYneFrUNx_qyKmI-85">
          <mxGeometry x="755" y="147" width="37.69" height="36.5" as="geometry" />
        </mxCell>
        <mxCell id="I4ScSmYneFrUNx_qyKmI-117" value="" style="image;aspect=fixed;html=1;points=[];align=center;fontSize=12;image=img/lib/azure2/networking/Route_Tables.svg;" vertex="1" parent="I4ScSmYneFrUNx_qyKmI-85">
          <mxGeometry x="881" y="183.5" width="37.69" height="36.5" as="geometry" />
        </mxCell>
        <mxCell id="I4ScSmYneFrUNx_qyKmI-111" value="" style="image;aspect=fixed;html=1;points=[];align=center;fontSize=12;image=img/lib/azure2/networking/Route_Tables.svg;" vertex="1" parent="I4ScSmYneFrUNx_qyKmI-85">
          <mxGeometry x="651" y="419" width="37.69" height="36.5" as="geometry" />
        </mxCell>
        <mxCell id="I4ScSmYneFrUNx_qyKmI-119" value="" style="image;aspect=fixed;html=1;points=[];align=center;fontSize=12;image=img/lib/azure2/networking/Route_Tables.svg;" vertex="1" parent="I4ScSmYneFrUNx_qyKmI-85">
          <mxGeometry x="848" y="323.5" width="37.69" height="36.5" as="geometry" />
        </mxCell>
        <mxCell id="I4ScSmYneFrUNx_qyKmI-84" value="NSG" parent="0" />
        <mxCell id="I4ScSmYneFrUNx_qyKmI-123" value="" style="image;aspect=fixed;html=1;points=[];align=center;fontSize=12;image=img/lib/azure2/networking/Network_Security_Groups.svg;" vertex="1" parent="I4ScSmYneFrUNx_qyKmI-84">
          <mxGeometry x="698" y="151" width="32.32" height="39.25" as="geometry" />
        </mxCell>
        <mxCell id="I4ScSmYneFrUNx_qyKmI-125" value="" style="image;aspect=fixed;html=1;points=[];align=center;fontSize=12;image=img/lib/azure2/networking/Network_Security_Groups.svg;" vertex="1" parent="I4ScSmYneFrUNx_qyKmI-84">
          <mxGeometry x="892" y="151" width="32.32" height="39.25" as="geometry" />
        </mxCell>
        <mxCell id="I4ScSmYneFrUNx_qyKmI-126" value="" style="image;aspect=fixed;html=1;points=[];align=center;fontSize=12;image=img/lib/azure2/networking/Network_Security_Groups.svg;" vertex="1" parent="I4ScSmYneFrUNx_qyKmI-84">
          <mxGeometry x="1076" y="151" width="32.32" height="39.25" as="geometry" />
        </mxCell>
        <mxCell id="I4ScSmYneFrUNx_qyKmI-129" value="" style="image;aspect=fixed;html=1;points=[];align=center;fontSize=12;image=img/lib/azure2/networking/Network_Security_Groups.svg;" vertex="1" parent="I4ScSmYneFrUNx_qyKmI-84">
          <mxGeometry x="1076" y="327.5" width="32.32" height="39.25" as="geometry" />
        </mxCell>
        <mxCell id="I4ScSmYneFrUNx_qyKmI-127" value="" style="image;aspect=fixed;html=1;points=[];align=center;fontSize=12;image=img/lib/azure2/networking/Network_Security_Groups.svg;" vertex="1" parent="I4ScSmYneFrUNx_qyKmI-84">
          <mxGeometry x="975" y="423" width="32.32" height="39.25" as="geometry" />
        </mxCell>
        <mxCell id="I4ScSmYneFrUNx_qyKmI-79" value="Azure DNS" parent="0" />
        <mxCell id="I4ScSmYneFrUNx_qyKmI-110" value="" style="rounded=0;whiteSpace=wrap;html=1;strokeColor=#C73500;strokeWidth=5;align=center;verticalAlign=middle;fontFamily=Helvetica;fontSize=12;fontColor=#000000;fillColor=none;" vertex="1" parent="I4ScSmYneFrUNx_qyKmI-79">
          <mxGeometry x="952" y="340" width="75" height="91" as="geometry" />
        </mxCell>
        <mxCell id="I4ScSmYneFrUNx_qyKmI-130" value="" style="rounded=0;whiteSpace=wrap;html=1;strokeColor=#C73500;strokeWidth=5;align=center;verticalAlign=middle;fontFamily=Helvetica;fontSize=12;fontColor=#000000;fillColor=none;" vertex="1" parent="I4ScSmYneFrUNx_qyKmI-79">
          <mxGeometry x="1058" y="340" width="89" height="104" as="geometry" />
        </mxCell>
        <mxCell id="I4ScSmYneFrUNx_qyKmI-80" value="Load Balancer" parent="0" />
        <mxCell id="I4ScSmYneFrUNx_qyKmI-107" value="" style="rounded=0;whiteSpace=wrap;html=1;strokeColor=#C73500;strokeWidth=5;align=center;verticalAlign=middle;fontFamily=Helvetica;fontSize=12;fontColor=#000000;fillColor=none;" vertex="1" parent="I4ScSmYneFrUNx_qyKmI-80">
          <mxGeometry x="881" y="360" width="53" height="59" as="geometry" />
        </mxCell>
        <mxCell id="I4ScSmYneFrUNx_qyKmI-106" value="" style="rounded=0;whiteSpace=wrap;html=1;strokeColor=#C73500;strokeWidth=5;align=center;verticalAlign=middle;fontFamily=Helvetica;fontSize=12;fontColor=#000000;fillColor=none;" vertex="1" parent="I4ScSmYneFrUNx_qyKmI-80">
          <mxGeometry x="953" y="75" width="198" height="123" as="geometry" />
        </mxCell>
        <mxCell id="I4ScSmYneFrUNx_qyKmI-77" value="Gateways" parent="0" />
        <mxCell id="I4ScSmYneFrUNx_qyKmI-98" value="" style="rounded=0;whiteSpace=wrap;html=1;strokeColor=#C73500;strokeWidth=5;align=center;verticalAlign=middle;fontFamily=Helvetica;fontSize=12;fontColor=#000000;fillColor=none;" vertex="1" parent="I4ScSmYneFrUNx_qyKmI-77">
          <mxGeometry x="667" y="512" width="68" height="57" as="geometry" />
        </mxCell>
        <UserObject label="VNet Gateways" link="data:action/json,{&quot;actions&quot;:[{&quot;toggle&quot;:{&quot;cells&quot;:[&quot;I4ScSmYneFrUNx_qyKmI-77&quot;]}}]}" id="I4ScSmYneFrUNx_qyKmI-131">
          <mxCell style="rounded=1;whiteSpace=wrap;html=1;fontStyle=0;strokeColor=#36393d;fillColor=#cdeb8b;" vertex="1" parent="I4ScSmYneFrUNx_qyKmI-77">
            <mxGeometry x="37" y="635" width="108" height="27" as="geometry" />
          </mxCell>
        </UserObject>
        <mxCell id="I4ScSmYneFrUNx_qyKmI-83" value="Virtual Machines" parent="0" />
        <mxCell id="I4ScSmYneFrUNx_qyKmI-105" value="" style="rounded=0;whiteSpace=wrap;html=1;strokeColor=#C73500;strokeWidth=5;align=center;verticalAlign=middle;fontFamily=Helvetica;fontSize=12;fontColor=#000000;fillColor=none;" vertex="1" parent="I4ScSmYneFrUNx_qyKmI-83">
          <mxGeometry x="459" y="103" width="110" height="88" as="geometry" />
        </mxCell>
        <mxCell id="I4ScSmYneFrUNx_qyKmI-102" value="" style="rounded=0;whiteSpace=wrap;html=1;strokeColor=#C73500;strokeWidth=5;align=center;verticalAlign=middle;fontFamily=Helvetica;fontSize=12;fontColor=#000000;fillColor=none;" vertex="1" parent="I4ScSmYneFrUNx_qyKmI-83">
          <mxGeometry x="628" y="354" width="282" height="76" as="geometry" />
        </mxCell>
      </root>
    </mxGraphModel>
  </diagram>
</mxfile>
